<?xml version="1.0" encoding="utf-8"?>
<!-- Generator: Adobe Illustrator 27.1.1, SVG Export Plug-In . SVG Version: 6.00 Build 0)  -->
<svg version="1.1" id="Layer_1" xmlns="http://www.w3.org/2000/svg" xmlns:xlink="http://www.w3.org/1999/xlink" x="0px" y="0px"
	 viewBox="0 0 120 30" style="enable-background:new 0 0 120 30;" xml:space="preserve">
<style type="text/css">
	.st0{fill:#9C9C9C;}
	.st1{fill-rule:evenodd;clip-rule:evenodd;fill:#9C9C9C;}
</style>
<g>
	<g>
		<path class="st0" d="M63.8,22.4c-0.3,0.3-0.5,0.8-0.5,1.3c0,0.3,0.1,0.6,0.2,0.8c0.2,0.2,0.4,0.3,0.7,0.3c0.1,0,0.3,0,0.4-0.1
			c0.1,0,0.3-0.1,0.4-0.2c0.1-0.1,0.2-0.1,0.3-0.2c0.1-0.1,0.1-0.1,0.2-0.2l0.1-0.1l0.5,0.9c0,0-0.1,0.1-0.1,0.1
			c0,0-0.1,0.1-0.3,0.2c-0.1,0.1-0.3,0.2-0.4,0.3c-0.1,0.1-0.3,0.2-0.6,0.2c-0.2,0.1-0.5,0.1-0.7,0.1c-0.6,0-1.1-0.2-1.4-0.7
			c-0.4-0.5-0.5-1-0.5-1.7c0.1-0.8,0.4-1.6,1-2.2c0.6-0.6,1.3-0.9,2.1-0.9c0.2,0,0.5,0,0.7,0.1c0.2,0.1,0.4,0.2,0.5,0.3
			c0.1,0.1,0.2,0.2,0.3,0.3c0.1,0.1,0.2,0.2,0.2,0.3l0.1,0.1L66,22.5c0,0,0,0,0-0.1c0,0-0.1-0.1-0.1-0.2c-0.1-0.1-0.1-0.1-0.2-0.2
			C65.6,22,65.5,22,65.3,22c-0.1,0-0.3-0.1-0.4-0.1C64.5,21.9,64.2,22.1,63.8,22.4z"/>
		<path class="st0" d="M70.5,26h-1.2l0.5-2h-1.6l-0.5,2h-1.2l1.3-5.2H69l-0.5,1.9h1.6l0.5-1.9h1.2L70.5,26z"/>
		<path class="st0" d="M72.9,24.8L72.3,26H71l2.9-5.2h1.3l0.4,5.2h-1.2l0-1.1H72.9z M74.3,22.2l-0.8,1.5h0.8L74.3,22.2z"/>
		<path class="st0" d="M81.5,20.8L80.3,26h-1l-1.2-2.9L77.3,26h-1.2l1.3-5.2h1l1.2,2.9l0.7-2.9H81.5z"/>
		<path class="st0" d="M82.1,25.4c-0.4-0.5-0.5-1-0.5-1.7c0.1-0.8,0.4-1.6,1-2.2c0.6-0.6,1.3-0.9,2.1-0.9c0.2,0,0.5,0,0.7,0.1
			c0.2,0.1,0.4,0.2,0.5,0.3c0.1,0.1,0.2,0.2,0.3,0.3c0.1,0.1,0.2,0.2,0.2,0.3l0.1,0.1l-0.9,0.8c0,0,0,0,0-0.1c0,0-0.1-0.1-0.1-0.2
			c-0.1-0.1-0.1-0.1-0.2-0.2C85.1,22,85,22,84.8,22c-0.1,0-0.3-0.1-0.4-0.1c-0.4,0-0.8,0.2-1.1,0.5c-0.3,0.3-0.5,0.8-0.5,1.3
			c0,0.3,0.1,0.6,0.2,0.8c0.2,0.2,0.4,0.3,0.7,0.3c0.2,0,0.3,0,0.4-0.1c0.1-0.1,0.2-0.1,0.3-0.2l0.1-0.1l0.1-0.6H84l0.2-0.9h1.9
			l-0.5,2c0,0-0.1,0.1-0.1,0.1c0,0-0.1,0.1-0.3,0.2c-0.1,0.1-0.3,0.2-0.4,0.3c-0.2,0.1-0.3,0.2-0.6,0.2c-0.2,0.1-0.5,0.1-0.7,0.1
			C83,26.1,82.5,25.9,82.1,25.4z"/>
		<path class="st0" d="M89.8,20.8L89,24.2c-0.1,0.6-0.4,1.1-0.7,1.4c-0.3,0.4-0.8,0.5-1.2,0.5c-0.2,0-0.3,0-0.5-0.1
			c-0.1,0-0.3-0.1-0.4-0.2c-0.1-0.1-0.2-0.1-0.2-0.2c-0.1-0.1-0.1-0.1-0.2-0.2l0-0.1l0.9-0.9c0,0,0,0,0,0.1c0,0,0.1,0.1,0.1,0.1
			c0.1,0,0.2,0.1,0.2,0.1c0.1,0,0.3-0.1,0.4-0.2c0.1-0.1,0.2-0.3,0.3-0.5l0.8-3.4H89.8z"/>
		<path class="st0" d="M90.8,20.8H92L90.7,26h-1.2L90.8,20.8z"/>
		<path class="st0" d="M93.2,24.8L92.6,26h-1.3l2.9-5.2h1.3l0.4,5.2h-1.2l0-1.1H93.2z M94.5,22.2l-0.8,1.5h0.8L94.5,22.2z"/>
		<path class="st0" d="M101.8,20.8l-1.3,5.2h-1l-1.2-2.9L97.6,26h-1.2l1.3-5.2h1l1.2,2.9l0.7-2.9H101.8z"/>
		<path class="st0" d="M102.3,25.4c-0.4-0.5-0.5-1-0.5-1.7c0.1-0.8,0.4-1.6,1-2.2c0.6-0.6,1.3-0.9,2.1-0.9c0.2,0,0.5,0,0.7,0.1
			c0.2,0.1,0.4,0.2,0.5,0.3c0.1,0.1,0.2,0.2,0.3,0.3c0.1,0.1,0.2,0.2,0.2,0.3l0.1,0.1l-0.9,0.8c0,0,0,0,0-0.1c0,0-0.1-0.1-0.1-0.2
			c-0.1-0.1-0.1-0.1-0.2-0.2c-0.1-0.1-0.2-0.1-0.3-0.1c-0.1,0-0.3-0.1-0.4-0.1c-0.4,0-0.8,0.2-1.1,0.5c-0.3,0.3-0.5,0.8-0.5,1.3
			c0,0.3,0.1,0.6,0.2,0.8c0.2,0.2,0.4,0.3,0.7,0.3c0.2,0,0.3,0,0.4-0.1c0.1-0.1,0.2-0.1,0.3-0.2l0.1-0.1L105,24h-0.7l0.2-0.9h1.9
			l-0.5,2c0,0-0.1,0.1-0.1,0.1c0,0-0.1,0.1-0.3,0.2c-0.1,0.1-0.3,0.2-0.4,0.3c-0.2,0.1-0.3,0.2-0.6,0.2c-0.2,0.1-0.5,0.1-0.7,0.1
			C103.2,26.1,102.7,25.9,102.3,25.4z"/>
	</g>
	<g>
		<polygon class="st0" points="108.2,19.2 7.8,19.2 11.8,8.8 35.5,8.8 35.5,9.2 12.1,9.2 8.5,18.8 107.9,18.8 111.5,9.2 55.6,9.2 
			55.6,8.8 112.2,8.8 		"/>
	</g>
	<g>
		<g>
			<g>
				<path class="st1" d="M63.3,14.5l0.9-2.3h2.6l0.3-1.5h-10l-0.6,1.5h1.7l-1,2.5h-4.3l1.6-4h-8.9l3.9-1.6l9.4-3.9l0.5-1.3h-6.7
					L38,10l1.2-3h-6.1l-1.5,3.7H12.7l0.7,1.5H31l-1.3,3.2h4.7c0,0,0.7-0.4,1.7-0.8c1.2-0.5,3-1,5-1c2.8,0,4.4,0.9,4.9,1.8v0.1h61.4
					l0.5-1H63.3z M47.3,14.5c-0.8-0.8-2.3-1.6-4.8-1.6h-5.7l0.6-1.5h11.1L47.3,14.5z"/>
			</g>
		</g>
	</g>
</g>
</svg>
