<?xml version="1.0" encoding="utf-8"?>
<!-- Generator: Adobe Illustrator 27.1.1, SVG Export Plug-In . SVG Version: 6.00 Build 0)  -->
<svg version="1.1" id="Layer_1" xmlns="http://www.w3.org/2000/svg" xmlns:xlink="http://www.w3.org/1999/xlink" x="0px" y="0px"
	 viewBox="0 0 110 30" style="enable-background:new 0 0 110 30;" xml:space="preserve">
<style type="text/css">
	.st0{fill:#9C9C9C;}
</style>
<g>
	<g>
		<path class="st0" d="M28.1,5.1l-5.2-3L11.4,8.6v12.8l11.5,6.6l11.3-6.6V8.6L28.1,5.1z M32.5,20.4l-9.6,5.7L13,20.4V9.5l9.8-5.5
			l9.6,5.5V20.4z"/>
		<path class="st0" d="M22.8,23.7h-1.1c-0.2,0-0.3-0.2-0.2-0.4v-4.9C21.3,18,21,18,20.8,18.1c-1.2,0.6-2.2,1.4-3.6,1.3
			c-1.1,0-2-0.6-2.6-1.6c-0.8-1.3-0.9-3.2,0-4.5c0.3-0.5,0.7-0.9,1.2-1.2c2.5-1.5,5.6-2.6,6.7-5.7c0.1-0.2,0.1-0.6,0.3-0.6
			c0.2,0,0.2,0.4,0.3,0.6c1.1,3,4.3,4.3,6.7,5.7c0.5,0.3,0.9,0.7,1.2,1.2c1,1.3,0.8,3.2,0,4.5c-0.6,1-1.5,1.6-2.6,1.6
			c-1.4,0.1-2.4-0.8-3.6-1.3c-0.2,0-0.5,0-0.7,0.3v4.9c0,0.2,0,0.4-0.2,0.4L22.8,23.7 M20.8,11.4l-4.1,2.5c-0.3,0.3-0.6,0.7-0.7,1.1
			c-0.2,0.7,0,1.4,0.4,1.9c0.4,0.4,1,0.6,1.6,0.5l2.8-1.2c0.1,0,0.3-0.1,0.4-0.3c0.1-0.1,0.2-0.4,0.2-0.5l0-3.6l-0.1-0.3
			C21.2,11.4,21,11.4,20.8,11.4 M24.2,11.5l-0.1,0.3l0,3.6c0,0.1,0.1,0.3,0.2,0.4c0.1,0.1,0.3,0.2,0.4,0.3l2.8,1.2
			c0.5,0.1,1.2-0.1,1.6-0.5c0.4-0.5,0.6-1.2,0.4-1.9c-0.1-0.4-0.3-0.7-0.7-1.1l-4.1-2.5C24.5,11.4,24.3,11.4,24.2,11.5"/>
	</g>
	<g>
		<path class="st0" d="M79.8,12.9l0.1,0.2h-2c-0.2-0.6-0.9-1.2-1.5-1.3c-0.5,0.1-1,0-1.4,0.3c-1.2,1.1-1.2,2.9-0.8,4.4
			c0.2,0.6,0.7,1.3,1.4,1.5c0.5,0.1,1.1,0,1.6-0.3c0.5-0.4,0.7-1,0.7-1.6l-1.4,0v-1.4h3.8c0.1,1.7-0.6,3.4-2.2,4.1
			c-1.7,0.6-4.1,0.6-5.4-1c-0.9-1.2-1.1-3-0.7-4.4c0.4-1.4,1.8-2.5,3.3-2.7C77,10.4,79,11.1,79.8,12.9"/>
		<path class="st0" d="M69.9,12.7l0.2,0.4h-2.1c-0.2-0.6-0.8-1.1-1.4-1.2c-0.5,0-1.1,0-1.5,0.3c-1,0.9-1.1,2.5-0.9,3.8
			c0.2,0.8,0.5,1.7,1.3,2c0.6,0.2,1.3,0.1,1.8-0.3c0.5-0.4,0.7-0.9,0.7-1.5l-1.4,0v-1.4h3.8c0.2,1.7-0.6,3.3-2.1,4
			c-1.6,0.6-3.6,0.6-5-0.4c-1.2-1-1.6-2.6-1.4-4.3c0.1-1.4,1.3-2.7,2.6-3.2C66.4,10.4,69,10.7,69.9,12.7"/>
		<path class="st0" d="M51.4,19.2h-2.2l0-8.3h2.2L51.4,19.2"/>
		<path class="st0" d="M81.5,19.3h2.3v-8.3h-2.3V19.3z"/>
		<path class="st0" d="M47.5,12.3c0.4,1,0.4,2.5-0.5,3.3c-1.1,1-3.2,0.6-4.3,0.7v2.9h-2.4l0-6.4c-0.1-0.3-0.3-0.5-0.6-0.7
			c-0.2,0-0.4-0.2-0.7-0.1l0-1.1c0.3,0,6.6,0,6.7,0C46.6,11,47.1,11.6,47.5,12.3z M42.7,12.4v2.3l2.5,0c0.6-0.3,0.6-0.7,0.7-1.1
			c0-0.7-0.3-1-0.7-1.2L42.7,12.4"/>
		<path class="st0" d="M61.9,19.2h-2.8l-0.9-2.4l-3.2,0l-1,2.4h-1.5l3.4-8.3l2.7,0L61.9,19.2z M57.6,15.4l-1-2.5l-1,2.5L57.6,15.4"
			/>
		<path class="st0" d="M93.6,12.8c0.8,1.3,0.7,3.4-0.2,4.7c-1.1,1.6-3.2,1.8-4.9,1.6c-1.2-0.2-2.4-0.8-3-1.9
			c-0.7-1.5-0.6-3.4,0.3-4.7c1.5-1.7,3.9-2,5.9-1.2C92.5,11.5,93.2,12.2,93.6,12.8z M88.8,12.2c-1,0.5-1.3,1.6-1.3,2.8
			c0,1.2,0.2,2.6,1.5,3c0.8,0.1,1.7,0.1,2.2-0.7c0.7-1.2,0.8-3,0.1-4.2C90.8,12.1,89.7,11.8,88.8,12.2"/>
		<path class="st0" d="M97.4,12.9c0.3,0,0.5-0.2,0.5-0.5c0-0.4-0.4-0.5-0.8-0.5h-0.6v1.7h0.3v-0.6H97l0.5,0.6h0.5L97.4,12.9z
			 M96.8,12.7v-0.6h0.3c0.3,0,0.4,0.1,0.4,0.3c0,0.2-0.1,0.3-0.4,0.3H96.8"/>
		<g>
			<path class="st0" d="M97.1,14.3c-0.9,0-1.5-0.7-1.5-1.5c0-0.9,0.7-1.5,1.5-1.5c0.9,0,1.5,0.7,1.5,1.5
				C98.6,13.6,98,14.3,97.1,14.3z M97.1,11.5c-0.7,0-1.2,0.5-1.2,1.2c0,0.7,0.5,1.2,1.2,1.2c0.7,0,1.2-0.5,1.2-1.2
				C98.3,12.1,97.8,11.5,97.1,11.5z"/>
		</g>
	</g>
</g>
</svg>
