<?xml version="1.0" encoding="utf-8"?>
<!-- Generator: Adobe Illustrator 27.1.1, SVG Export Plug-In . SVG Version: 6.00 Build 0)  -->
<svg version="1.1" id="Layer_1" xmlns="http://www.w3.org/2000/svg" xmlns:xlink="http://www.w3.org/1999/xlink" x="0px" y="0px"
	 viewBox="0 0 80 30" style="enable-background:new 0 0 80 30;" xml:space="preserve">
<style type="text/css">
	.st0{fill-rule:evenodd;clip-rule:evenodd;fill:#9C9C9C;}
</style>
<g>
	<path class="st0" d="M14,22.9C13.4,23,13,23,12.4,23c-2.7,0-4.7-1.9-4.7-4.4c0-3.2,2-4.1,4.4-4.4c0.7-0.1,1.4-0.1,2-0.2
		c1.5-0.1,2.7-0.2,2.7-1.3c0-1.7-1.4-1.9-2.7-1.9c-1.4,0-2.3,0.6-2.4,1.9l-3.4,0c0.2-3.4,2.9-4.4,5.8-4.5c2.6,0,6.3,0.4,6.3,4v7.3
		c0,1.3-0.2,2.3,0.4,3.1h-3.4c-0.1-0.4-0.4-0.9-0.4-1.3c-0.8,0.8-1.8,1.3-2.8,1.4L14,22.9L14,22.9z M14.1,20.3
		c2.5-0.2,2.7-2.1,2.7-2.9l0-1.7c-0.6,0.5-1.6,0.6-2.6,0.8c-0.1,0-0.2,0.1-0.3,0.1c-1.2,0.3-2.4,0.8-2.4,2.2c0,1.4,1,1.6,2.2,1.6
		C13.8,20.3,13.9,20.3,14.1,20.3L14.1,20.3z"/>
	<path class="st0" d="M65.4,22.8c-0.6,0.1-1,0.1-1.6,0.1c-2.7,0-4.7-1.9-4.7-4.4c0-3.2,2-4.1,4.4-4.4c0.7-0.1,1.4-0.1,2-0.2
		c1.5-0.1,2.7-0.2,2.7-1.3c0-1.7-1.4-1.9-2.7-1.9c-1.4,0-2.3,0.6-2.4,1.9l-3.4,0c0.2-3.4,2.9-4.4,5.8-4.5c2.6,0,6.3,0.4,6.3,4v7.3
		c0,1.3-0.2,2.3,0.4,3.1h-3.4c-0.1-0.4-0.4-0.9-0.4-1.3c-0.8,0.8-1.8,1.3-2.8,1.4L65.4,22.8L65.4,22.8z M65.6,20.3
		c2.5-0.2,2.7-2.1,2.7-2.9l0-1.7c-0.6,0.5-1.6,0.6-2.6,0.8c-0.1,0-0.2,0.1-0.3,0.1c-1.2,0.3-2.4,0.8-2.4,2.2c0,1.4,1,1.6,2.2,1.6
		C65.3,20.3,65.4,20.3,65.6,20.3L65.6,20.3z"/>
	<path class="st0" d="M28.4,19.9c2.4,0,3.2-2.2,3.2-4.5c0-2.2-0.9-4.4-3.2-4.5c-2.6,0-3.3,2.4-3.3,4.5
		C25.1,17.6,25.7,19.9,28.4,19.9L28.4,19.9z M28.4,22.8c-1.3-0.2-2.5-0.9-3.3-2.1h0.1v5.9h-3.6V8.8h3.2v1.4h0.1c0.8-1.3,2-2,3.5-2.1
		c0.2,0,0.5,0,0.7,0c4.4,0,6.4,3.6,6.4,7.5c0,3.8-2.1,7.3-6.2,7.3C29,22.9,28.7,22.8,28.4,22.8L28.4,22.8z"/>
	<path class="st0" d="M43.7,11.9c-2,0-3.9,1.3-3.9,4.5v6.3h-3.6V8.7h3.3l0,2.2c0.8-1.7,2.1-2.6,4.1-2.6V11.9L43.7,11.9z"/>
	<polygon class="st0" points="49.7,3.4 53.3,3.4 53.3,22.8 49.7,22.8 49.7,3.4 	"/>
	<polygon class="st0" points="54.5,3.4 58.1,3.4 58.1,6.6 54.5,6.6 54.5,3.4 	"/>
	<polygon class="st0" points="54.5,8.7 58.1,8.7 58.1,22.7 54.5,22.7 54.5,8.7 	"/>
	<polygon class="st0" points="45,3.4 48.6,3.4 48.6,6.6 45,6.6 45,3.4 	"/>
	<polygon class="st0" points="45,8.7 48.6,8.7 48.6,22.7 45,22.7 45,8.7 	"/>
</g>
</svg>
