<?xml version="1.0" encoding="utf-8"?>
<!-- Generator: Adobe Illustrator 27.1.1, SVG Export Plug-In . SVG Version: 6.00 Build 0)  -->
<svg version="1.1" id="Layer_1" xmlns="http://www.w3.org/2000/svg" xmlns:xlink="http://www.w3.org/1999/xlink" x="0px" y="0px"
	 viewBox="0 0 140 30" style="enable-background:new 0 0 140 30;" xml:space="preserve">
<style type="text/css">
	.st0{fill-rule:evenodd;clip-rule:evenodd;fill:#9C9C9C;}
</style>
<path class="st0" d="M83.1,13.2c-0.2,0-0.8,0-1.7,0h-6.1L74,15h6.1c0.9,0,1.5,0,1.6,0c0.6,0,1.1-0.1,1.4-0.3
	c0.2-0.1,0.4-0.3,0.6-0.6c0.2-0.3,0.2-0.4,0.2-0.6C83.9,13.3,83.7,13.2,83.1,13.2z M130.6,11.8l-0.3-0.5l-0.5-0.4
	c-1.2-0.7-2.6-0.8-4-0.8c-0.3,0-0.6,0-0.9,0c-2.7-0.1-5.5-0.1-8.3,0c-1.5,0-3,0-4.4,0.3c-1.1,0.2-2,0.6-2.8,1.2
	c-0.3-0.5-0.9-0.9-1.5-1.1l-0.3-0.1c-1.3-0.3-2.7-0.3-4.1-0.3c-2.5,0-5,0-7.5,0.1c-2,0.1-4.3,0.2-6,1.3c-0.7-0.9-2-1.2-3.3-1.2
	c-1.4,0-2.8,0-4.2,0c-11.8,0-23.5,0-35.3,0l-1.8,2.7h-6.4L41,10h-8l-0.8,1.3c-0.7-1-2.3-1.2-3.6-1.3c-1.7-0.1-3.4-0.1-5-0.1
	c-1.7,0-3.5,0-5.2,0.1c-1.4,0.1-2.8,0.3-4,1c-1.2,0.7-2.1,1.7-2.6,2.9c-0.2,0.4-0.2,0.7-0.2,1.2h-0.9c-0.4,0.6-0.8,1.2-1.1,1.8
	c-0.1,0.2-0.2,0.5-0.2,0.7l0,0.3l0.1,0.3l0.2,0.3l0.2,0.3c0.5,0.4,0.8,0.6,1.4,0.8c1.1,0.3,2.2,0.3,3.3,0.4c2.5,0.1,5,0.1,7.5,0
	l2.6-0.1c0.6-0.1,1.2-0.1,1.8-0.3L26.3,20h8l1.8-2.7h6.4L40.8,20c10.6,0,21.1,0,31.7,0l1.3-1.9c1.8,0,3.7,0,5.5,0L78,20h7.7l0.7-1.1
	c0.7,0.7,2.1,0.9,3.2,1c1.1,0.1,2.1,0.1,3.2,0.1c2.3,0,4.7,0,7,0c2.1-0.1,4.4-0.2,6.1-1.4c0.7,1,2.3,1.2,3.6,1.3
	c2.1,0.1,4.2,0.1,6.3,0.1c2,0,4,0,6-0.1c1.5-0.1,2.8-0.3,4.1-1l0.5-0.3c1.3-0.9,2.1-2.1,2.9-3.3c0.5-0.8,1-1.6,1.3-2.5
	C130.7,12.5,130.7,12.2,130.6,11.8z M27.4,17.9c-0.6,0.3-1.3,0.6-2.2,0.7c-0.9,0.1-3.2,0.2-6.8,0.2c-2.2,0-3.8,0-4.7-0.1
	c-1.2-0.1-1.9-0.2-2.3-0.4c-0.4-0.2-0.5-0.5-0.4-1c0.1-0.2,0.2-0.4,0.4-0.7l0.3-0.4h4.2c-0.3,0.4-0.3,0.6,0,0.7
	c0.1,0,0.3,0.1,0.5,0.1c0.2,0,0.5,0,1,0c0.2,0,1,0,2.4,0c1.9,0,2.9,0,3.2,0c0.6,0,1-0.1,1.2-0.1c0.3-0.1,0.5-0.3,0.7-0.5
	c0.1-0.2,0.1-0.3,0-0.4c-0.1-0.1-0.6-0.2-1.4-0.2c-0.5,0-1.7,0-3.4-0.1c-1.8,0-2.9-0.1-3.4-0.1c-1.4,0-2.3-0.1-2.8-0.3
	c-0.6-0.2-0.9-0.5-0.8-0.9c0-0.2,0.2-0.6,0.5-1c0.6-0.8,1.3-1.4,2.1-1.8c0.6-0.3,1.4-0.4,2.4-0.5c0.9-0.1,2.9-0.1,6.1-0.1
	c2.1,0,3.5,0,4.3,0.1c1.1,0.1,1.8,0.2,2.1,0.4c0.5,0.3,0.5,0.8,0,1.5c-0.1,0.1-0.1,0.2-0.3,0.4H26c0.1-0.2,0.2-0.3,0.2-0.4
	c0-0.2-0.2-0.3-0.7-0.3c-0.5,0-1.6,0-3.5,0c-1.8,0-3,0-3.3,0.1c-0.4,0.1-0.7,0.2-0.9,0.5c-0.2,0.3-0.1,0.4,0.3,0.5
	c0.3,0,1.8,0.1,4.5,0.1c2.5,0,4,0.1,4.7,0.1c0.7,0.1,1.1,0.1,1.5,0.2c0.3,0.1,0.6,0.3,0.7,0.5c0.2,0.3,0,0.8-0.4,1.4
	C28.5,17.1,27.9,17.6,27.4,17.9z M43.3,18.7l1.8-2.7h-9.8l-1.8,2.7h-4.6l5-7.4h4.6l-1.8,2.7h9.8l1.8-2.7h4.6l-5,7.4H43.3z M67,16.9
	l-1.2,1.8H49.9l5-7.4h15.8L69.5,13H58l-0.7,1.1h11l-1.1,1.6h-11l-0.8,1.2H67z M85.4,15.7c-0.3,0-0.6,0.1-1.1,0.1
	c0.9,0,1.5,0.2,1.7,0.4c0.1,0.1,0.1,0.2,0.1,0.4c0,0.1-0.1,0.3-0.2,0.6c-0.1,0.1-0.3,0.4-0.5,0.8l-0.5,0.7h-4.3l0.3-0.4
	c0.3-0.4,0.5-0.8,0.5-1c0.1-0.3-0.1-0.4-0.5-0.5c-0.3,0-0.9,0-1.9,0h-6.1l-1.3,1.9h-4.4l5-7.4h10.5c2.5,0,3.9,0,4.4,0
	c0.5,0,0.9,0.1,1.2,0.2c0.3,0.1,0.5,0.3,0.6,0.5c0.1,0.2,0.1,0.4,0,0.7c-0.1,0.3-0.3,0.6-0.6,1c-0.4,0.6-0.8,1-1.1,1.3
	C86.7,15.3,86.1,15.6,85.4,15.7z M106,16.6c-0.4,0.5-0.8,1-1.4,1.3c-0.6,0.3-1.4,0.6-2.4,0.7c-1.2,0.1-3,0.2-5.6,0.2
	c-2.9,0-4.8,0-5.7-0.1c-0.9,0-1.6-0.1-2-0.2c-0.5-0.1-0.8-0.2-1.1-0.4c-0.3-0.2-0.4-0.5-0.3-0.9c0.1-0.4,0.6-1.1,1.3-2.2
	c0.7-1.1,1.2-1.8,1.6-2.2c0.5-0.6,1.2-1,2.1-1.2c0.6-0.2,1.6-0.3,2.7-0.4c1.2-0.1,3.4-0.1,6.4-0.1c1.8,0,3.1,0,3.8,0.1
	c1.1,0.1,1.9,0.2,2.3,0.3c0.5,0.2,0.7,0.5,0.6,0.9c-0.1,0.3-0.2,0.6-0.5,1c0,0.1-0.1,0.2-0.3,0.4h-4.4c0.1-0.2,0.2-0.3,0.2-0.4
	c0.1-0.2,0-0.4-0.3-0.4c-0.4-0.1-1.8-0.1-4-0.1c-1.5,0-2.6,0-3.2,0.1c-0.7,0.1-1.3,0.2-1.7,0.6c-0.3,0.3-0.7,0.7-1.1,1.4
	c-0.4,0.6-0.7,1.1-0.7,1.3c0,0.3,0.3,0.5,1,0.6c0.6,0,1.7,0.1,3.2,0.1c1.7,0,2.8,0,3.4-0.1c0.6,0,1-0.1,1.3-0.3
	c0.2-0.2,0.5-0.4,0.7-0.7h4.4C106.2,16.2,106,16.5,106,16.6z M100.8,15.2c-0.1,0.1-0.2,0.3-0.4,0.4c-0.3,0.1-0.8,0.1-1.2,0.1
	c-1.6,0-3.3,0-4.9,0c0.3-0.4,0.6-0.8,0.9-1.2c0.3-0.2,0.8-0.2,1.2-0.2c1.6-0.1,3.2-0.1,4.7,0L100.8,15.2L100.8,15.2z M127.9,15
	c-0.8,1.2-1.5,2-2,2.5c-0.9,0.7-2.2,1.1-3.9,1.2c-1.2,0.1-3.4,0.1-6.4,0.1c-3.1,0-5.2,0-6.3-0.1c-1.6-0.1-2.3-0.5-2.2-1.2
	c0.1-0.5,0.5-1.3,1.3-2.5c0.8-1.2,1.5-2,2-2.5c0.9-0.7,2.2-1.1,3.9-1.2c1.2-0.1,3.4-0.1,6.6-0.1c3,0,5.1,0,6.2,0.1
	c1.6,0.1,2.3,0.5,2.2,1.2C129.1,13,128.7,13.8,127.9,15z M123.9,13.3c-0.2-0.1-0.8-0.2-1.8-0.2c-0.4,0-1.3,0-2.9,0
	c-2.2,0-3.5,0-4,0.1c-0.6,0.1-1.1,0.2-1.4,0.5c-0.3,0.3-0.7,0.8-1.2,1.5c-0.3,0.5-0.5,0.8-0.5,1c-0.1,0.4,0.3,0.6,1.1,0.6
	c0.6,0,1.9,0.1,3.7,0.1c1.8,0,3.1,0,3.8-0.1c0.9-0.1,1.6-0.3,2-0.6c0.2-0.2,0.5-0.5,0.8-1c0.4-0.5,0.6-0.9,0.7-1.1
	C124.3,13.7,124.2,13.5,123.9,13.3z M121.6,15.3l-1.4,0.3c-1.2,0-2.4,0-3.6,0c-0.8,0-1.7,0-2.6,0c0.2-0.3,0.5-0.7,0.7-0.9
	c0.3-0.3,0.8-0.3,1.3-0.3c1.3,0,2.5,0,3.8,0c0.8,0,1.7,0,2.5,0C122.1,14.7,121.8,15,121.6,15.3z"/>
</svg>
