<?xml version="1.0" encoding="utf-8"?>
<!-- Generator: Adobe Illustrator 27.1.1, SVG Export Plug-In . SVG Version: 6.00 Build 0)  -->
<svg version="1.1" id="Layer_1" xmlns="http://www.w3.org/2000/svg" xmlns:xlink="http://www.w3.org/1999/xlink" x="0px" y="0px"
	 viewBox="0 0 180 30" style="enable-background:new 0 0 180 30;" xml:space="preserve">
<style type="text/css">
	.st0{fill-rule:evenodd;clip-rule:evenodd;fill:#9C9C9C;}
</style>
<g>
	<g>
		<path class="st0" d="M46.9,9c0.9-0.1,2.1-0.1,2.8,0.4c0.6,0.5,0.8,1.1,0.8,1.9c0,1-0.7,2-1.6,2.3c-0.6,0.2-1.3,0.2-2,0.2
			C46.9,13.2,46.9,9.9,46.9,9L46.9,9z M48.5,7.3c-1.7,0-3.4,0-5.1,0c0,0.5,0.1,1,0.2,1.5c0.1,1,0,6.9,0,8.4c0,0.6,0,1.1,0,1.7
			c0,0.6-0.2,1-0.2,1.5c0.6,0,3.4,0.1,3.7,0c-0.3-1.1-0.4-3.6-0.3-4.6c0.7,0,0.8-0.1,0.9,0.1c0.2,0.3,0.4,0.6,0.7,1l0.9,1.1
			c0.2,0.2,0.1,0.2,0.5,0.5c0.5,0.5,1,0.9,1.6,1.4c3.4,2.5,8.7,2.9,12.1,0.3c3-2.3,3.6-7.1,0.5-9.4c-2.1-1.6-5.5-1.6-7.6,0
			c-1.7,1.4-2.3,3.9-1.2,5.7c1,1.7,3.6,2.1,4.8,1.1c0.3-0.3,0.4-0.3,0.4-0.6c-0.4,0-0.7,0.1-1.2,0c-1.6-0.3-2.1-2.6-1.4-4.3
			c1.1-2.4,3.6-2.1,4.6-0.2c0.6,1.1,0.8,3,0.3,4.3c-0.2,0.7-0.5,1.3-0.9,1.7c-1.5,1.6-3.6,1.9-5.8,1.3c-0.8-0.2-1.5-0.6-2.1-1.1
			c-0.9-0.6-3-2.7-3.3-3.7c0.3-0.2,0.4-0.2,0.8-0.5c0.1-0.1,0.1-0.1,0.2-0.2c0.4-0.3,0.2-0.2,0.5-0.5c0.4-0.4,0.7-1,0.9-1.7
			c0.3-1,0.2-2.2-0.3-3.1c-0.5-0.8-1.3-1.3-2.2-1.6C50.1,7.3,49.3,7.3,48.5,7.3z"/>
		<path class="st0" d="M155.7,9.8c0.5,2.6,0.1,4.9,0.3,7.3c0.5,0.1,0.6,0.2,1.4,0.3c0.5,0.1,1.1,0.1,1.7,0.1c0-2.2,0-4,0-6.2
			c1.5,0,2.7-0.2,3.8,1.1c1.2,1.4,1.3,4.5-0.3,5.9c-0.7,0.6-1.8,1.1-2.8,1.2c-2,0.2-3.7-0.4-5.3-0.6c-0.6-0.1-1.3-0.1-1.9-0.2
			c-0.1-1.5-0.1-6.6,0.1-8.1c0-0.2,0.1-0.6,0.1-0.8l-3.6,0c0.1,0.5,0.2,1.1,0.2,1.7v7.2c0,0.5-0.1,1.1-0.3,1.6
			c0.3,0,2.2,0.1,2.9,0.1c3.2,0.2,4.8,1.5,7.6,1.5c1.2,0,2.2-0.1,3.3-0.5c0.4-0.2,0.8-0.3,1.1-0.6l0.7-0.5c1.5-1.2,2.2-2.9,2.2-4.9
			c0-1.2-0.3-2.3-1-3.1c-0.5-0.6-0.3-0.4-0.8-0.8c-2-1.7-4.3-1.6-7-1.6L155.7,9.8z"/>
		<path class="st0" d="M116.9,20.4c0-0.1-0.3-0.4-0.4-0.5c-0.4-0.4-0.5-0.8-1-0.8c-1.3,0-2.8,0.4-3.9,0.7c-2.1,0.5-4.5,0.6-6.6,0.1
			v-4.4c1,0,2.4,0,3.4,0.1c0.3,0,0.8,0.1,1,0.1l0-2.2c-0.3,0-0.7,0.1-1,0.1c-0.3,0-0.7,0-1.1,0.1c-0.7,0.1-1.6,0.1-2.3,0
			c-0.1-0.4,0-3.3,0-4.2c0-0.3,0-0.1,0-0.2c0.1-0.2,3.2-0.1,3.7,0c0.4,0,0.7,0.1,1.1,0.2c0-0.3-0.2-1.9-0.2-2.1l-8.2,0
			c0.1,0.6,0.2,1.2,0.2,1.9c0.1,1.2,0,9.1,0.1,10.6c0,2.5-0.6,2.3,0.1,2.5c2.9,0.6,5.8,0.8,8.6,0.1
			C112.3,21.8,114.4,20.4,116.9,20.4z"/>
		<path class="st0" d="M111.6,9.8c0.5,3,0.2,5.1,0.3,7.9c0.3,0,1.5-0.3,2.2-0.4l0-2.8c0.6,0,1,0.8,1.6,1.4c0.1,0.1,0.1,0.1,0.2,0.2
			l1,1.1c0.4,0.4,1.5,1.7,2,2.2c0.1,0.1,0.1,0.1,0.2,0.2c0.1,0.1,0.3,0.3,0.5,0.4c0.4,0.2,2,0.2,2.4,0.1c-0.4-1.5-0.2-3.6-0.2-5.2
			c0-0.9,0-1.8,0-2.7c0-1.3,0.2-2,0.3-2.5l-2.7,0c0,0.3,0.1,0.6,0.2,1c0.1,0.8,0.1,2.4,0.1,3.2l0,1.7c0,0.4-0.1,0.4-0.4-0.1
			l-0.5-0.6c-0.7-0.7-1.8-2.2-2.5-3.1l-1.8-2.1L111.6,9.8z"/>
		<path class="st0" d="M80.6,12.9c0.1,0.1,1.2,3.3,1.2,3.6l-2.7,0l1.2-3.6L80.6,12.9L80.6,12.9z M78.3,20.3c-0.2-0.9,0-1.4,0.2-2.2
			l3.9,0c0.1,0.3,0.2,0.6,0.3,1c0.1,0.4,0,0.7,0,1.2l3.7,0c-0.1-0.2-0.2-0.4-0.3-0.7c-0.4-0.9-3.5-9.4-3.6-9.8h-3.2
			c0.1,1.3-0.2,1.8-0.5,2.9c-0.6,1.7-1.2,3.5-1.8,5.1c-0.1,0.4-0.3,0.9-0.4,1.3c-0.2,0.4-0.5,1-0.5,1.2L78.3,20.3z"/>
		<path class="st0" d="M139.8,20.3l7,0c0.1-0.1,0.1-0.7,0.1-0.9c0-0.3,0.1-0.6,0.1-1c-1.5,0.2-2.3,0.4-3.8,0v-2.7
			c0.1-0.1,0,0,0.1-0.1c0.3-0.1,2.3,0.1,2.6,0.1l0-1.9c-0.3,0-1,0.1-1.3,0.1c-0.3,0-1.1,0.1-1.3,0c-0.1-0.1,0-2.6,0-2.7
			c0.4-0.1,1.4,0,1.9,0c0.7,0,1.1,0.2,1.7,0.2l-0.2-1.8l-6.8,0c0.2,1.3,0.2,1,0.3,2.5c0,0.9,0,1.8,0,2.7c0,1.3,0.1,2.7,0,4
			C140,19.5,139.9,19.9,139.8,20.3z"/>
		<path class="st0" d="M124.9,12.4l0,5.2c0,1.2-0.1,1.6-0.3,2.7l3.6,0c-0.3-1.6-0.3-2.5-0.2-4.1c0.8-0.1,1.8,0.1,2.7,0.1l0-1.9
			c-1,0.1-1.6,0.2-2.6,0.1c-0.1-0.3,0-2.6,0-3.1c0.7,0,1.9,0,2.6,0.1c0.3,0,0.7,0.1,1,0.1l-0.2-1.8l-6.8,0c0,0.3,0.1,0.8,0.2,1.2
			C124.8,11.5,124.9,12,124.9,12.4z"/>
		<path class="st0" d="M73.2,20.3c-0.1-0.5-0.2-0.9-0.2-1.5c0-0.6,0-1.2,0-1.7c0-1.4,0.3-1.7,0.8-2.7c0.3-0.5,2.1-4,2.3-4.6l-2.5,0
			c0.1,0.8,0.1,1-0.2,1.9c-0.2,0.5-1.3,2.6-1.4,2.7l-1.7-3.4c-0.1-0.2-0.2-0.4-0.3-0.6c-0.1-0.2-0.2-0.4-0.3-0.6l-3.1,0
			c0,0.2,0.1,0.3,0.2,0.4l2.4,4.4c0.3,0.6,0.7,1.1,0.7,1.8l0,2.2c0,0.3,0,0.6-0.1,0.9c0,0.3-0.1,0.6-0.2,0.8L73.2,20.3z"/>
		<path class="st0" d="M88.4,20.3l7.2,0c0.1-0.1,0.3-1.9,0.2-2.1c-0.3,0-1.3,0.2-2.3,0.2c-0.3,0-1.6-0.1-1.7-0.2
			c-0.1-1.4,0-2.9,0-4.3c0-0.8,0-2.4,0.1-3.2c0-0.3,0.1-0.6,0.2-0.9l-3.6,0c0.1,0.4,0.2,0.7,0.2,1.1c0.1,0.7,0,3.3,0,4.1
			c0,0.9,0,1.8,0,2.7C88.7,18.8,88.7,19.4,88.4,20.3z"/>
		<path class="st0" d="M133.6,20.3c0.3,0.1,3.1,0,3.6,0c-0.1-1.2-0.2-1.1-0.3-2.5c0-0.9,0-1.8,0-2.7c0-1.4-0.1-2.6,0.1-4.1
			c0-0.4,0.1-0.8,0.2-1.2l-3.6,0c0,0.3,0.1,0.8,0.2,1.2c0.1,1.2,0.1,2.8,0.1,4C133.9,16.8,134,18.6,133.6,20.3z"/>
	</g>
	<g>
		<path class="st0" d="M14.5,9.7c-0.1,0.1-0.3,0.5-0.3,0.6c-0.3,0.7-0.5,1.3-0.7,2.1c-0.2,1.1-0.4,2.3-0.3,3.4
			c0.1,1.2,0.3,2.1,0.6,3.1c0.1,0.4,0.4,1,0.6,1.3c0.1,0.2,0.2,0.4,0.3,0.6c0.1,0.2,0.2,0.4,0.4,0.6c0.1,0.2,0.3,0.4,0.4,0.6
			c0.3,0.3,0.4,0.6,0.7,0.9c0,0,0.1,0.1,0.1,0.1c0.5,0.5,0.5,0.5,1,0.9c0.2,0.2,0.3,0.3,0.5,0.4c1,0.8,2.5,1.5,3.7,1.9
			c2.2,0.6,4.3,0.6,6.6,0c1.1-0.3,2.3-0.9,3.2-1.5l1.1-0.8c0.4-0.3,1.4-1.3,1.7-1.8c0-0.1,0-0.1,0.1-0.1c1.2-1.5,2.1-3.9,2.3-6.2
			c0.1-1.2,0-2.3-0.3-3.5c-0.2-0.7-0.6-2.1-1-2.7c-0.1,1.2,0.1,2.2-0.9,3.1c-0.5,0.4,0,1.4-0.3,2.5c-0.1,0.4-0.3,0.8-0.6,1.1
			c-0.1,0.1-0.2,0.1-0.3,0.3c-0.1,0.8,0.1,1.6-0.2,2.4c-0.1,0.4-0.2,0.6-0.4,0.8c-0.5,0.7-1.5,1.2-2.2,1.6c-0.6,0.3-1.1,0.6-1.6,0.9
			c-0.8,0.5-2.5,1.6-3.3,1.7c-1.2,0.3-2.4-0.7-3.6-1.4c-0.3-0.1-0.5-0.3-0.8-0.5c-0.3-0.2-0.5-0.3-0.8-0.5c-0.7-0.4-1.8-1-2.4-1.4
			c-0.2-0.2-0.5-0.5-0.6-0.7c-0.9-1.4-0.2-2.7-0.6-3.2c-1.4-1.3-0.8-2.7-0.9-3.5c0-0.1-0.4-0.4-0.6-0.7
			C14.4,11.4,14.5,10.7,14.5,9.7z"/>
		<path class="st0" d="M24,12.7c0.8-0.1,1.8,0.1,1.8,1.1c0,0.4-0.2,0.7-0.6,0.9c-0.4,0.2-0.8,0.2-1.3,0.1L24,12.7L24,12.7z M15.1,10
			c-0.1,0.5,0.1,1.4,0.3,1.9c0.3,0.5,0.7,0.8,1.3,1c1,0.3,3.1,0.1,4.3,0.2c0.1,0.2,0.1,4.9,0,5.7c0,0.3,0,0.6-0.1,0.9
			c0,0.2-0.2,0.6-0.1,0.8l3.3,0c0.1-0.3,0-1.2,0-1.6c0-0.5,0-1,0-1.6c0.2,0,0.2,0.1,0.3,0.2l0.6,0.8c0.3,0.3,0.6,0.7,0.8,1
			c0.7,0.9,1.3,1.2,2.5,1.2c1.3,0,2.8,0.2,3.6-1c0.1-0.2,0.2-0.4,0.3-0.6c0.2-0.5,0.2-1.1,0.2-1.7c0,0-0.9,0.2-1.3,0.2
			c-0.4,0-2.6,0.1-2.9-0.1c-0.2-0.1-0.7-0.6-0.8-0.7c0.2-0.2,0.8-0.5,1.2-1.5c0.4-1,0.4-2.4-0.2-3.4c-1.1-1.8-3.3-1.7-5.2-1.7
			l-5.4,0C17,10,15.9,9.9,15.1,10z"/>
		<path class="st0" d="M14.6,9.3c1.1,0,2.2,0,3.4,0c0.7,0,0.6-0.1,1.2-0.4l2.7-1.5c0.8-0.5,2-1.3,2.9-1.3c0.9,0,1.8,0.6,2.4,1
			l3.2,1.9C30.6,9,30.8,9.1,31,9.2c0.3,0.2,0.3,0.1,0.7,0.1c0.6,0,2.9,0,3.4,0c-0.1-0.5-1-1.5-1.3-1.9l-0.8-0.9
			C32.6,6.2,32.3,6,32,5.8c-1.3-0.9-2-1.4-3.7-1.9c-1.1-0.4-2.3-0.5-3.5-0.6c-2.3,0-4.4,0.7-6.3,1.8c-0.1,0.1-0.2,0.1-0.3,0.2
			C18,5.5,17.6,5.8,17.4,6c-0.4,0.3-0.7,0.7-1.1,1c-0.2,0.2-0.3,0.3-0.5,0.5C15.6,7.8,14.7,9,14.6,9.3z"/>
		<path class="st0" d="M29.5,13c1.2,0,3.2,0.2,4.2-0.5c0.7-0.5,0.9-1.3,0.9-2.4c-2.3,0-4.7,0-7,0c0.1,0.2,0.6,0.3,1.3,1.2
			C29.3,11.7,29.4,12.3,29.5,13z"/>
		<path class="st0" d="M29.5,13.6c-0.1,0.7-0.1,1.1-0.4,1.7c-0.1,0.3-0.2,0.4-0.4,0.7c-0.2,0.3-0.4,0.4-0.5,0.6
			c0.4,0.1,1.6,0.1,2,0.1c0.7,0,1.3,0,1.8-0.3c0.4-0.2,0.9-0.6,1-1.1c0.2-0.4,0.3-1.4,0.2-1.9c-0.3,0-0.5,0.2-0.8,0.2
			C31.9,13.7,29.9,13.6,29.5,13.6z"/>
		<path class="st0" d="M20.4,13.6c-1-0.1-2.4,0.1-3.3,0c-0.3,0-0.6-0.1-0.9-0.2c-0.1,0.7,0.1,1.7,0.4,2.2c0.3,0.5,0.8,0.9,1.6,1
			c0.4,0.1,0.8,0.1,1.2,0.1c1.2,0,0.9,0,0.9-0.4C20.4,15.4,20.4,14.5,20.4,13.6z"/>
		<path class="st0" d="M20,20.3c0.4-0.5,0.3-2.2,0.3-3c-0.8-0.1-1.4,0.1-2.4-0.1c-0.2,0-0.5-0.1-0.7-0.2c0,0.4,0,1,0.1,1.4
			c0.2,0.7,0.7,1.4,1.4,1.6C19.2,20.3,19.5,20.3,20,20.3z"/>
	</g>
</g>
</svg>
