<?xml version="1.0" encoding="utf-8"?>
<!-- Generator: Adobe Illustrator 27.1.1, SVG Export Plug-In . SVG Version: 6.00 Build 0)  -->
<svg version="1.1" id="Layer_1" xmlns="http://www.w3.org/2000/svg" xmlns:xlink="http://www.w3.org/1999/xlink" x="0px" y="0px"
	 viewBox="0 0 120 30" style="enable-background:new 0 0 120 30;" xml:space="preserve">
<style type="text/css">
	.st0{fill-rule:evenodd;clip-rule:evenodd;fill:#9C9C9C;}
</style>
<g>
	<path class="st0" d="M43.9,9.2c0.3-0.3,0.5-0.7,0.8-1c0.3-0.4,0.5-0.7,0.7-1l1.1-1.5c0.2-0.3,0.3-0.3,0.3-0.5l-24.9,0L18,10.5
		c-0.3,0.4-0.2,0.3-0.5,0.6l-1.9,2.5c-0.4,0.6-0.8,1.1-1.2,1.7c-0.3,0.4-2.4,3.2-2.5,3.4c0.2,0.1,11.9,0.1,13,0
		c0.1-0.2,0.3-0.4,0.4-0.6l2.8-3.7c0.2-0.2,0.2-0.5,0.6-0.5h6.6c0.6,0,0.5,0,0.8-0.3l2.4-3.2c0-0.1,0.3-0.4,0.4-0.4
		c-0.5-0.1-6,0-7.3,0c0.1-0.3,0.2-0.3,0.3-0.5c0.2-0.3,0.2-0.2,0.6-0.2C36.2,9.2,40.2,9.3,43.9,9.2z"/>
	<path class="st0" d="M28.4,18.8l4.9,0c0.7,0,2.6,0.1,3.1-0.1c1.3-0.6,2.9-1.5,4.2-2.2c0.7-0.4,1.4-0.7,2.1-1.1l6.4-3.3l-1.2,1.7
		c-0.1,0.1-1.1,1.6-1.2,1.6c-0.6,0.1-1.7-0.1-2.1,0c0,0-2.4,3.1-2.4,3.4l8.2,0l3.6-4.8c0.2-0.2,0.3-0.4,0.4-0.6
		c0.2-0.2,0.3-0.4,0.4-0.6l1.8-2.4c0.2-0.3,0.8-0.9,0.9-1.2l-0.9,0c-1.3,0-9.9,0-10.3,0c-0.3,0-3.7,1.9-4.1,2.1l-3.4,1.8
		c-0.4,0.2-0.8,0.4-1.2,0.6c-1.3,0.7-3.3,1.9-4.6,2.5C32.5,16.6,28.4,18.7,28.4,18.8z"/>
	<path class="st0" d="M61.2,18.8c0.6,0.1,3.2,0,4.2,0c0.2,0,1.1,0.1,1.3-0.1l4.1-5.5c0.4-0.6,2.8-3.7,2.9-4l-5.2,0
		c-0.2,0.1-1.9,2.4-2.2,2.9c-0.1,0.2-0.2,0.2-0.3,0.4c-0.1,0.1-0.5,0.8-0.6,0.8c-0.2-0.3-1-3.6-1.2-4.2l-5.3,0c-0.1,0-0.1,0-0.2,0.1
		L54,15.5c-0.1,0.1-0.1,0.2-0.2,0.3c-0.3,0.4-2.2,2.9-2.2,3l5.3,0c0.6-0.8,1.1-1.4,1.5-2.1l1.2-1.6c0.1-0.1,0.1-0.2,0.2-0.3
		c0.1-0.1,0.1-0.2,0.2-0.2c0.1,0.2,0.2,0.8,0.3,1C60.6,16.6,61,18.1,61.2,18.8z"/>
	<path class="st0" d="M105.7,12.1c0.5,0,0.5-0.2,0.8-0.6c0.4-0.5,1.5-1.9,1.6-2.3l-8.7,0c-1.5,0-1.7,0.4-2.2,1.1l-2.6,3.5
		c-1,1.2-2.1,2.9-3,4c-0.6,0.7-0.4,1,0.7,1h13c0.8,0,0.6,0.1,1-0.4c0.2-0.3,0.4-0.5,0.6-0.8c0.1-0.2,1.2-1.4,1.2-1.6
		c-3.2,0-6.4,0-9.6,0c0.1-0.2,0.9-1.3,1.1-1.5c0.3-0.4,1.6-2.4,1.9-2.4L105.7,12.1z"/>
	<path class="st0" d="M88.1,12.1c0.2-0.4,1.9-2.5,2-2.8l-15.3,0c-0.1,0-1.4,1.8-1.6,2.1c-0.2,0.3-0.4,0.5-0.5,0.7l4.9,0
		c-0.1,0.2-1.6,2.2-1.8,2.5L74,17.1c-0.2,0.3-1.2,1.5-1.2,1.7l5.2,0c0.1,0,3.5-4.6,3.6-4.8l0.9-1.2c0.5-0.9,0.4-0.7,1.4-0.7
		C85.3,12.1,86.8,12.1,88.1,12.1z"/>
	<path class="st0" d="M84.3,18.8l5.3,0c0.1-0.2,0.3-0.4,0.4-0.6l5.6-7.5c0.3-0.4,1-1.3,1.1-1.5l-5.2,0c-0.2,0.1-0.4,0.4-0.5,0.6
		L87.9,14c-0.3,0.4-0.6,0.8-0.9,1.2C86.7,15.6,84.4,18.7,84.3,18.8z"/>
	<path class="st0" d="M70.8,22.1l6.3,0l0,1.7l-6.4,0L70.8,22.1L70.8,22.1z M69.9,24.1c0,0.5,0.4,0.5,0.9,0.5c0.5,0,0.9,0,1.4,0
		c0.8,0,5.3,0.1,5.6-0.1c0.3-0.2,0.2-0.9,0.2-1.3c0-0.4,0-1,0-1.4c-0.1-0.6-0.4-0.5-1-0.5l-4.3,0c-3.1,0-3-0.3-3,1.4
		C69.9,23.1,69.9,23.7,69.9,24.1z"/>
	<path class="st0" d="M89.1,22.4c0-0.3,0-0.3,0.2-0.3l3.7,0c2.8,0,2.4-0.2,2.4,0.8c0,0.3,0,0.7,0,1l-6.4,0L89.1,22.4L89.1,22.4z
		 M88.2,24.3c0.1,0.4,0.7,0.4,1.1,0.4h4.3c3.1,0,2.8,0.3,2.8-1.5c0-0.3,0-1.2,0-1.4c-0.1-0.5-0.6-0.4-1.1-0.4l-4.3,0
		c-3,0-2.8-0.3-2.8,1.5C88.2,23.1,88.2,24,88.2,24.3z"/>
	<path class="st0" d="M80.2,21.3c-0.5,0.1-1.3-0.2-1.3,0.4c0,0.6,0.6,0.4,1.3,0.4c0.1,0.6-0.1,2,0.2,2.4c0.3,0.3,1.8,0.2,2.3,0.2
		l4.4,0c0.6,0,0.5-0.5,0.3-0.8l-6.2,0l0-1.7c0.3-0.1,4.7,0,5.7,0c0.4,0,0.4,0,0.7-0.1c0.2-0.8-0.4-0.7-1.1-0.7c-1,0-4.8,0.1-5.3,0
		l0-1.5c-0.3-0.2-0.6-0.2-0.9,0L80.2,21.3z"/>
	<path class="st0" d="M61.7,22.4c0-0.4,0.1-0.3,0.5-0.3c0.3,0,0.6,0,0.8,0c1.3,0,1.4-0.1,1.4,0.3c0,0.8,0,1.5,0,2.3
		c0.9,0.3,0.9-0.1,0.9-0.5l0-2l2.7,0l0,1.7c0,0.6-0.1,0.8,0.2,0.9c0.9,0.3,0.7-0.8,0.7-1.2c0-2.1,0.2-2.2-0.9-2.2
		c-0.9,0-6.6,0-6.9,0c-0.4,0.1-0.4,0.4-0.4,0.8c0,0.6-0.1,2,0,2.5c0.4,0.1,0.5,0.2,0.9,0L61.7,22.4z"/>
	<path class="st0" d="M105.3,22.1c0.3,0,0.5-0.1,0.5-0.4c0-0.3-0.2-0.4-0.5-0.4h-7.2c-0.9,0-0.7,0.5-0.7,1.3l0,1.1
		c0,0.7-0.1,0.9,0.2,1c0.2,0.1,0.5,0,0.7-0.1l0-2.5L105.3,22.1z"/>
</g>
</svg>
