<?xml version="1.0" encoding="utf-8"?>
<!-- Generator: Adobe Illustrator 27.1.1, SVG Export Plug-In . SVG Version: 6.00 Build 0)  -->
<svg version="1.1" id="Layer_1" xmlns="http://www.w3.org/2000/svg" xmlns:xlink="http://www.w3.org/1999/xlink" x="0px" y="0px"
	 viewBox="0 0 160 30" style="enable-background:new 0 0 160 30;" xml:space="preserve">
<style type="text/css">
	.st0{fill-rule:evenodd;clip-rule:evenodd;fill:#9C9C9C;}
</style>
<g>
	<path class="st0" d="M22.3,14.6l1.7,6.9l1.6-6.5l3.2-3.2l2.9,2.9l-7.7,7.7l-6.5-6.5l3.6-3.6l1.5-0.1l5.6-5.6l-1.3-1.3l-2,2
		c0.1,0.5,0,1-0.4,1.3c-0.5,0.5-1.4,0.5-1.9,0c-0.5-0.5-0.5-1.4,0-1.9c0.4-0.4,0.9-0.5,1.3-0.4l2-2l-1.3-1.3l-2.4,2.4l-2.2,0
		l-8.4,8.4l6.7-4.5l-0.2,1.3L13.1,16L24,26.9l12.3-12.3l-7-7L22.3,14.6z"/>
	<path class="st0" d="M84.1,16.6L84.1,16.6c1.2,0,2.3-0.8,2.3-1.9h-2.3v0h-6.8v-2.6h6.8v2.6h2.3v-2.6c0-1-1-1.9-2.3-1.9h-9v10.3h2.3
		v-4h3.1l3.8,4h3.2l-3.8-4H84.1z M92.2,15.7h4.9v-1.9h-4.9V15.7z M45.3,18.6v-1.5l-2.3,0.4v1.1c0,1,1,1.9,2.3,1.9h6.6
		c1.2,0,2.3-0.8,2.3-1.9v-2.5h-2.3v2.5H45.3z M68.3,18.6h-7.4v-8.4h-2.3v8.4c0,1,1,1.9,2.3,1.9h7.4c1.2,0,2.3-0.8,2.3-1.9v-8.4h-2.3
		V18.6z M120.9,18.6v-6.5h-2.3v6.5c0,1,1,1.9,2.3,1.9h8.3c1.2,0,2.3-0.8,2.3-1.9v-6.5h-2.3v6.5H120.9z M146,10.2v7.2l-7.9-6.5
		l-0.8-0.7h-1.4v10.3h2.3v-7.2l7.9,6.5l0.9,0.7h1.4V10.2H146z M131.4,12.1c0-1-1-1.9-2.3-1.9v0h-8.3v0c-1.2,0-2.3,0.8-2.3,1.9h2.3
		l0,0h8.3l0,0H131.4z M51.9,10.2h-6.6c-1.2,0-2.3,0.8-2.3,1.9v2.2h0c0,1,1,1.9,2.3,1.9v0h6.6v0h2.3c0-1-1-1.9-2.3-1.9v0h-6.6v-2.2
		h6.6v1.4l2.3-0.6v-0.8C54.2,11,53.2,10.2,51.9,10.2z M110.8,16.6L110.8,16.6c1.2,0,2.3-0.8,2.3-1.9h-2.3v0H104v-2.6h6.8v2.6h2.3
		v-2.6c0-1-1-1.9-2.3-1.9h-9v10.3h2.3v-4h3.1l3.8,4h3.2l-3.8-4H110.8z"/>
</g>
</svg>
