<?xml version="1.0" encoding="utf-8"?>
<!-- Generator: Adobe Illustrator 27.1.1, SVG Export Plug-In . SVG Version: 6.00 Build 0)  -->
<svg version="1.1" id="Layer_1" xmlns="http://www.w3.org/2000/svg" xmlns:xlink="http://www.w3.org/1999/xlink" x="0px" y="0px"
	 viewBox="0 0 130 30" style="enable-background:new 0 0 130 30;" xml:space="preserve">
<style type="text/css">
	.st0{fill-rule:evenodd;clip-rule:evenodd;fill:#9C9C9C;}
</style>
<g>
	<path class="st0" d="M45.8,18.8c-0.3-0.3,0.3-0.4,0.6-0.7c1.3-1.2,3.2-3.4,2.5-6.3c-0.3-1.3-1.4-2.5-2.4-3.3
		C42,5.4,33,5.3,26.5,6.7c-3.1,0.7-6.1,1.8-8.7,3.2c-2.5,1.4-5.2,3.3-6.2,5.7c-1,2.5,0.1,5,1.5,6.3c5.4,4.7,17.4,3.4,24.1,1.2
		c1.8-0.6,3.5-1.3,5.1-2.2c0.5-0.3,1.1-0.8,1.5-0.9c1.1-0.2,1.8,0.2,3.3,0c0.4,0.1-0.3,0.5-0.5,0.6c-3.9,2.5-9.8,4.3-15.5,4.9
		c-6.9,0.8-14.4-0.2-18.2-3.3c-1.5-1.2-2.7-3.6-1.8-6.4c0.3-1.1,1.3-2.4,2.1-3.3c4.5-4.6,13.5-7.7,21.3-8.1c5.9-0.3,12.7,0.6,16,3.5
		c1.1,0.9,2.1,2.3,2.2,4.1c0.2,2.5-1.2,4.2-2.5,5.5c-0.5,0.5-1,1.2-1.4,1.4C48,19.1,47,18.5,45.8,18.8z"/>
	<path class="st0" d="M76.1,8.7c0.2,2.3,0,5.1,0.1,7.5c-0.4,0-0.7,0-1.1,0c0-2.2,0-4.3,0-6.5c-2.4,0.6-4.9,1.4-7.3,2.2
		c-1,0.3-1.9,0.9-3.2,0.8c-0.8-0.1-1.7-0.4-2.6-0.7c-2.4-0.8-5-1.7-7.4-2.4c-0.3,2,0.1,4.6-0.2,6.6c-0.2,0-0.5,0-0.7,0
		c-0.4-0.3-0.2-1.1-0.2-1.7c0-1.8,0-3.9,0-5.7c2.7-0.1,4.4,0.9,6.5,1.5c0.7,0.2,1.6,0.4,2.4,0.7c0.8,0.3,1.6,0.8,2.3,0.8
		c0.7,0,1.6-0.4,2.5-0.7c1.6-0.5,3-1,4.8-1.5C73.4,9.2,74.3,8.7,76.1,8.7C76,8.7,76.1,8.7,76.1,8.7z"/>
	<path class="st0" d="M94.8,8.7c0.1,1.9,0.2,5.3,0,7.5c-0.2,0-0.5,0-0.7,0C93.8,16,94,15.1,94,14.5c0-0.6,0-1.3,0-1.8
		c-5.2-0.2-10.7,0-16-0.1c-0.1,1.2,0.1,2.6-0.1,3.7c-0.2,0-0.5,0-0.7,0c-0.4-0.3-0.2-1.1-0.2-1.7c0-1.7,0-3.7,0-5.5
		c0-0.1,0-0.3,0.1-0.3C83,8.7,88.9,8.7,94.8,8.7z M77.9,11.6c5.3,0,10.7,0,16,0c0-0.6,0-1.3,0-1.9c-5.3,0-10.6,0-15.9,0
		C77.8,10.1,78,11,77.9,11.6z"/>
	<path class="st0" d="M95.7,8.7c6.5,0,13.2,0,20,0c0.4,0,0.9-0.1,1.4,0c0.6,0.1,0.9-0.1,0.9,0.5c0,0.7-0.3,0.4-1,0.5
		c-3.1,0.3-6.4,0-9.5,0c-3.9,0-7.3,0-10.9,0c-0.2,1.6,0,3.7-0.1,5.5c6.8,0,13.5,0,20.3,0c0.2-0.7,0-1.8,0.1-2.7c-2.8,0-6,0-9,0
		c-0.9,0-1.9,0.2-2.6-0.3c0.2-0.5,1-0.3,1.4-0.3c3.5-0.1,7.7,0.1,11.3,0c0,1.4,0,2.9,0,4.3c-7.5,0-14.9,0-22.4,0
		C95.7,13.8,95.5,11,95.7,8.7z"/>
	<path class="st0" d="M38.3,17.4c-0.1-0.6-0.1-1,0-1.5c2.5-0.3,8.6,0.6,8.6-2.1c0-2.7-6.2-1.9-9.2-2c0,2.6,0,5.2,0,7.8
		c-0.7,0-1.4,0-2,0c0-1.7,0-3.4,0-5.1c-0.4,0-0.6,0.3-1,0.4c0,1.6,0,3.2,0,4.7c-0.7,0-1.5,0-2.2,0c0-1.2,0-2.3,0-3.5
		c-1.8,0.7-4,1.9-5.9,2.8c-3.2-1.5-6.3-3.1-9.6-4.5c0,1.7,0,3.5,0,5.2c-0.7,0-1.4,0-2,0c0.2-2.4,0-5.2,0.1-7.8
		c3.8,1.8,7.6,3.6,11.3,5.4c2.1-0.9,4.1-1.9,6.1-2.9c0-1.4,0-2.7,0-4.1c5.1,0.5,12.5-1.4,15.3,1.4c0.9,0.9,1.2,2.9,0.2,4.2
		C46.3,17.8,41.7,17.6,38.3,17.4z M34.7,13.1c1-0.4,2-0.8,2.8-1.4c-0.9,0-1.9,0-2.8,0C34.7,12.2,34.7,12.6,34.7,13.1z"/>
	<path class="st0" d="M68.4,16.4c1.8-0.3,4.5,0.3,4.1,2.6c-0.4,2.5-7,2.7-6.6-0.8C66,17.2,67,16.7,68.4,16.4z M66.7,18.9
		c0.2,1.7,4.6,1.8,4.8,0c0.2-1.6-1.7-1.8-2.9-1.6C67.6,17.4,66.6,17.6,66.7,18.9z"/>
	<path class="st0" d="M54.4,19c-0.4,0.3,0.3,1.7-0.4,1.7c-0.6,0.2-0.4-0.5-0.4-0.8c-0.1-1,0.1-2.3,0-3.3c1.4,0,4.6-0.3,6.6-0.1
		c0.7,0.1,1.6,0.3,1.7,0.9c0.3,1.2-1,1.5-1.9,1.5C58.2,19.1,56,18.8,54.4,19z M59.9,17.2c-1.7-0.1-4,0-5.5,0c0,0.3,0,0.6,0,0.9
		c1.7,0,3.9,0.1,5.5,0c0.4,0,1.3,0.2,1.4-0.5C61.1,17,60.3,17.2,59.9,17.2z"/>
	<path class="st0" d="M114.7,19c1.3,0.6,2.8,0.9,4.2,1.4c0,0.3-0.2,0.4-0.2,0.8c-2.3-0.6-4.5-1.3-6.8-1.9c-0.2,0.4,0,1.1-0.1,1.6
		c-0.3,0-0.6,0-0.9,0c0-1.4,0-2.8,0-4.2c1.4,0.1,3.1-0.1,4.6-0.1c1.5,0,3.3,0.1,3.2,1.4C118.8,19.3,116.4,18.9,114.7,19z
		 M116.2,17.2c-1.4-0.1-2.9-0.1-4.2,0c0,0.4,0,0.7,0,1.1c0.9,0,2,0,3.1,0c1.2,0.1,2.7,0.5,3-0.7C117.6,17,116.8,17.3,116.2,17.2z"/>
	<path class="st0" d="M99.2,16.6c1.7,0.1,4.3-0.2,6.3,0c0.2,0,0.7-0.1,0.6,0.3c0.1,0.7-0.9,0.4-1.3,0.4c-1.4,0-3.3,0-4.7,0
		c0,0.3,0,0.5,0,0.8c0.3,0.2,0.8,0.1,1.4,0.1c0.4,0,1.2-0.2,1.2,0.3c0,0.5-0.6,0.3-1.1,0.3c-0.5,0-1,0-1.4,0c-0.2,0.3,0,1-0.1,1.4
		c1.4,0,3.1-0.1,4.7,0c0.4,0,1.1-0.2,1.3,0.3c-0.1,0.5-1,0.3-1.5,0.3c-1.6,0-3.6,0-5.3,0C99.2,19.4,99.2,18,99.2,16.6z"/>
	<path class="st0" d="M81.5,19.6c1.4-0.9,2.5-1.9,3.8-2.9c1.5,0.9,2.6,2.1,4.1,3c1.3-0.6,2.4-1.7,3.7-2.5c0.4-0.2,0.9-0.7,1.3-0.2
		c-0.7,0.8-1.6,1.3-2.4,1.9c-0.8,0.6-1.6,1.3-2.5,1.8C88,20,86.8,18.9,85.5,18c-1.3,0.9-2.4,1.9-3.7,2.8c-1.7-1.1-3.3-2.4-5-3.6
		c0-0.2,0.3-0.2,0.3-0.5C78.8,17.5,79.9,18.8,81.5,19.6z"/>
</g>
</svg>
