<?xml version="1.0" encoding="utf-8"?>
<!-- Generator: Adobe Illustrator 27.1.1, SVG Export Plug-In . SVG Version: 6.00 Build 0)  -->
<svg version="1.1" id="Layer_1" xmlns="http://www.w3.org/2000/svg" xmlns:xlink="http://www.w3.org/1999/xlink" x="0px" y="0px"
	 viewBox="0 0 140 30" style="enable-background:new 0 0 140 30;" xml:space="preserve">
<style type="text/css">
	.st0{fill-rule:evenodd;clip-rule:evenodd;fill:#9C9C9C;}
</style>
<g>
	<path class="st0" d="M106.1,20.2v-9.5h-3.7V8.3H113v2.4h-3.7v9.5H106.1z M93,10.7c-1.2,0-2.2,0.9-2.2,2.1v3c0,1.2,1,2.1,2.2,2.1
		h3.2c1.2,0,2.2-0.9,2.2-2.1v-3c0-1.2-1-2.1-2.2-2.1L93,10.7z M91.7,8.3h5.8c2.2,0,4.1,1.6,4.1,3.5l0,5c0,1.9-1.8,3.5-4.1,3.5h-5.8
		c-2.2,0-4.1-1.6-4.1-3.5v-5C87.6,9.9,89.5,8.3,91.7,8.3L91.7,8.3z M119.2,10.7c-1.2,0-2.2,0.9-2.2,2.1v3c0,1.2,1,2.1,2.2,2.1h3.2
		c1.2,0,2.2-0.9,2.2-2.1v-3c0-1.2-1-2.1-2.2-2.1L119.2,10.7z M117.9,8.3h5.8c2.2,0,4.1,1.6,4.1,3.5v5c0,1.9-1.8,3.5-4.1,3.5h-5.8
		c-2.2,0-4.1-1.6-4.1-3.5v-5C113.8,9.9,115.6,8.3,117.9,8.3L117.9,8.3z M61.8,8.3h7.7v2.4h-6.4c-1.2,0-2.2,0.9-2.2,2.1v1.2h8.6v2.4
		h-8.6v3.9h-3.2v-8.4C57.7,9.9,59.5,8.3,61.8,8.3L61.8,8.3z M49.2,8.3H57v2.4h-6.4c-1.2,0-2.2,0.9-2.2,2.1v3c0,1.2,1,2.1,2.2,2.1H57
		v2.4h-7.7c-2.2,0-4.1-1.6-4.1-3.5v-5C45.1,9.9,47,8.3,49.2,8.3L49.2,8.3z M74.4,8.3h8.4c2.2,0,4.1,1.6,4.1,3.5v8.4h-3.2v-7.4
		c0-1.2-1-2.1-2.2-2.1l-1.3,0v9.5H77v-9.5h-1.3c-1.2,0-2.2,0.9-2.2,2.1v7.4h-3.2v-8.4C70.3,9.9,72.1,8.3,74.4,8.3L74.4,8.3z"/>
	<path class="st0" d="M25.1,6c3.9,0,7.4,1.7,9.3,4.3c-0.7,0.1-1.4,0.2-1.9,0.3c-1.2,0.1-2.4,0.2-3.3,0.1c-1-0.1-1.8-0.2-2.7-0.3
		c-1.1-0.1-2.1-0.3-3.2-0.3c-0.3,0-0.6,0-0.9,0c-0.7,0-1.3,0.2-1.9,0.3c-0.8,0.2-1.3,0.4-1.9,1.2c-0.2,0.3-0.4,0.6-0.5,0.9L17.9,13
		c-0.1,0.2-0.2,0.5-0.3,0.7c-0.1,0.3-0.2,0.5-0.3,0.7l0,0l-0.9,2.6c-0.3,0.7-0.5,1.5-0.8,2.3c0,0,0,0,0,0l0,0
		c-0.8-1.3-1.3-2.7-1.3-4.3C14.2,10,19.1,6,25.1,6 M25.1,24c6,0,10.9-4,10.9-9c0-0.6-0.1-1.2-0.2-1.7c-1.3,0.3-3.8,0.7-5.2,0.7
		c-0.2,0-0.4,0-0.6,0c-1.1,0-2.1-0.1-3.1-0.2l-0.2,0c-1-0.2-1.9-0.3-2.9-0.3c-0.7,0-1.3,0.1-1.9,0.2l-0.3,0.1l-0.9,2.4l0.4,0
		c0,0,1-0.1,2.3-0.1c1.1,0,2.1,0.1,2.8,0.2c1,0.2,2.1,0.3,3.2,0.3c1.3,0,2.6-0.1,4.4-0.4c-0.2,0.8-0.5,1.5-1.1,2.1
		c-0.8,0.8-1.9,1.1-3.4,1.1c-1,0-2-0.2-2.8-0.3l-0.3-0.1c-0.2,0-0.4-0.1-0.5-0.1c-1.2-0.2-2.1-0.2-3-0.2c-1.2,0-2.3,0.2-3.5,0.5
		l-0.1,0l-3.1,1C18.1,22.4,21.4,24,25.1,24 M25.1,3.9c-7.1,0-12.9,5-12.9,11.1c0,6.1,5.8,11.1,12.9,11.1c7.1,0,12.9-5,12.9-11.1
		C38,8.9,32.2,3.9,25.1,3.9"/>
</g>
</svg>
