<?xml version="1.0" encoding="utf-8"?>
<!-- Generator: Adobe Illustrator 27.1.1, SVG Export Plug-In . SVG Version: 6.00 Build 0)  -->
<svg version="1.1" id="Layer_1" xmlns="http://www.w3.org/2000/svg" xmlns:xlink="http://www.w3.org/1999/xlink" x="0px" y="0px"
	 viewBox="0 0 100 30" style="enable-background:new 0 0 100 30;" xml:space="preserve">
<style type="text/css">
	.st0{fill-rule:evenodd;clip-rule:evenodd;fill:#9C9C9C;}
</style>
<g>
	<path class="st0" d="M44.1,6.5l-4,2.2l0.6-2.2H30.3l-2.8,7.6l5.5,4.1l-8.2,5.6h16.5l6.4-4.2l5.3,4.1h6.8l2.4-1.7l-0.6,1.8h10.9
		l1-2.6l15-8.9l2.2-5.8H44.1z M47.2,17.3l-6.6,4.1h-8l6-4.1h-3L30.5,13l1.4-4h6l-1.5,3.9h6.5l1.4-4.1l5.9,0.1L47.2,17.3z M59.1,21.4
		h-5.3l-5.2-4.2l3.2-8.3h17L68,10.8l-7.1,4.3l0.5-2.2l-5.7,0.2l-1.6,4.1h11.9L59.1,21.4z M86.8,10.5l-7.4,4.3L80,13l-6-0.1l-1.1,3.3
		h4l-5.4,3.4l-0.8,1.8h-5.5l4.9-12.5h17.1L86.8,10.5z"/>
	<polygon class="st0" points="9.6,8.8 15.6,17.4 15.5,23.7 9.3,15.1 9.6,8.8 	"/>
	<polygon class="st0" points="11.2,6.2 17.3,14.4 23.1,6.3 11.2,6.2 	"/>
	<polygon class="st0" points="18.8,17.6 25.1,9 25,15.2 18.8,23.6 18.8,17.6 	"/>
</g>
</svg>
