<?xml version="1.0" encoding="utf-8"?>
<!-- Generator: Adobe Illustrator 27.1.1, SVG Export Plug-In . SVG Version: 6.00 Build 0)  -->
<svg version="1.1" id="Layer_1" xmlns="http://www.w3.org/2000/svg" xmlns:xlink="http://www.w3.org/1999/xlink" x="0px" y="0px"
	 viewBox="0 0 130 30" style="enable-background:new 0 0 130 30;" xml:space="preserve">
<style type="text/css">
	.st0{fill:#9C9C9C;}
</style>
<g id="ZONTES" transform="translate(-37.748 -35.545)">
	<path id="Tracé_1" class="st0" d="M65.7,45.8v-2H51.1v2h8.5l-8.8,9.6v2H66v-2h-9.1L65.7,45.8z"/>
	<path id="Tracé_2" class="st0" d="M81.5,43.7h-9.9c-2.5,0-3.7,0.9-3.7,3v7.6c0,2,1.3,3,3.7,3h9.9c2.5,0,3.7-0.9,3.7-3v-7.6
		C85.2,44.7,84,43.7,81.5,43.7z M80.1,55.3h-7.2v-9.6h7.2V55.3z"/>
	<path id="Tracé_3" class="st0" d="M101.1,52l-9-8.2h-4.4v13.5h2.9V49l9.1,8.3h4.4V43.7h-2.9V52z"/>
	<path id="Tracé_4" class="st0" d="M105.3,45.7h5v11.6h5.1V45.7h5v-2h-15.1V45.7z"/>
	<path id="Tracé_5" class="st0" d="M126.9,51.5h9.6v-2h-9.6v-3.8h9.9v-2h-15v13.5h15.1v-2h-10V51.5z"/>
	<path id="Tracé_6" class="st0" d="M152.1,49.8l-8.3-1.9v-2.1h10.4v-2h-11.9c-2.4,0-3.6,0.9-3.6,2.8v2c0,1.6,0.8,2,3,2.6l8.1,1.9
		v2.4h-11v2h12.7c1.9,0,3.4-0.6,3.4-2.6v-2.3C154.7,50.8,154,50.2,152.1,49.8z"/>
</g>
</svg>
