<?xml version="1.0" encoding="utf-8"?>
<!-- Generator: Adobe Illustrator 27.1.1, SVG Export Plug-In . SVG Version: 6.00 Build 0)  -->
<svg version="1.1" id="Layer_1" xmlns="http://www.w3.org/2000/svg" xmlns:xlink="http://www.w3.org/1999/xlink" x="0px" y="0px"
	 viewBox="0 0 90 30" style="enable-background:new 0 0 90 30;" xml:space="preserve">
<style type="text/css">
	.st0{fill-rule:evenodd;clip-rule:evenodd;fill:#9C9C9C;}
</style>
<g>
	<path class="st0" d="M13.7,4c2.7,0.6,5.7,0.7,9.2,0.3c6.6-0.6,11.4-0.6,14.4,0.1C39.5,5,41.1,5.9,42,7.4C42.7,8.4,43.3,9,43.8,9
		c-0.1-0.1-0.2-0.2-0.3-0.3c0.3,0,0.5-0.1,0.8-0.2c-0.6-0.1-1.3-0.1-1.4-0.6C43.4,8,44.3,8,45.4,7.7c-0.3-0.3-0.6-0.4-0.9-0.3
		c-0.8,0.2-1.5,0.1-1.9-0.2c0.5,0,1.1-0.2,1.8-0.4c1.2-0.3,2-0.4,2.5-0.1c-0.1-0.2-0.2-0.3-0.2-0.5c0.6,0.2,1.3,0.3,2.1,0.3
		c0.6,0,1,0.1,1.1,0.5c-0.2,0-0.3,0-0.4-0.1c0.1,0.2,0.2,0.3,0.2,0.5c1.7-0.1,2.4,0.2,2.2,1c-0.4-0.3-1-0.4-1.7-0.3
		c-0.3,0.1-0.8,0.3-1.1,0.7c0.8-0.1,1.7,0.1,2.3-0.1c-0.2,0.4-0.8,0.6-1.9,0.5c-0.6-0.1-1.1-0.1-1.4,0.2c-0.9,0.7-1.5,1.1-1.8,1
		c0.1-0.2,0.2-0.3,0.3-0.4c-0.2-0.1-0.5,0.1-1.2,0.4c0.3-0.4,0.8-0.8,1.4-1.1c-0.3-0.1-0.8,0.1-1.6,0.7c-0.6,0.4-2,0.6-2.6-0.1
		c0.9,0.2,1.6,0.1,1.9-0.3c-0.7,0.2-1.2,0.3-1.4,0c0.4,0,0.7-0.1,0.8-0.3c-0.7,0-1.2-0.1-1.6-0.4c-0.4-0.2-0.9-0.5-1.4-1
		c-0.9-1-1.6-1.6-2-1.8c-1.1-0.6-2.1-0.9-3.2-1.2c-1.5-0.3-2.9-0.6-4.4-0.6c-2.2-0.1-4.6,0-7.1,0.3C18.9,5.4,15.4,5.1,13.7,4L13.7,4
		z M47.8,7.2C48.5,7,49,7.1,49.3,7.6c-0.2,0.1-0.5,0.4-0.9,0.7c0-0.2-0.2-0.4-0.6-0.3C48.3,7.6,48.3,7.4,47.8,7.2L47.8,7.2z"/>
	<path class="st0" d="M77.3,4.3c-1.4,0.8-4.9,1.1-10.4,0.8c-2.4-0.1-4.1-0.1-5.1,0c-1.9,0.1-3.5,0.4-4.8,0.8
		c-0.9,0.2-1.8,0.6-2.7,0.9c-0.8,0.3-1.6,0.5-2.2,0.8c-0.4-0.3-1-0.5-1.7-0.4l-0.3-0.4C51,6.4,52.2,6,53.6,5.5
		c1.8-0.7,3.6-1.2,5.5-1.3c1.7-0.1,4.5-0.1,8.5,0.2C71.2,4.7,74.5,4.7,77.3,4.3L77.3,4.3z"/>
	<path class="st0" d="M54.5,8.8c-0.7-0.9-1.3-1.2-2-0.8C53.1,8.8,53.8,9.1,54.5,8.8L54.5,8.8z"/>
	<path class="st0" d="M55.9,8.4c-0.8-1-1.5-1.3-2.2-0.9C54.6,8.4,55.3,8.7,55.9,8.4L55.9,8.4z"/>
	<path class="st0" d="M57.5,7.8C56.7,6.9,55.8,6.6,55,7C55.8,7.5,56.6,8.2,57.5,7.8L57.5,7.8z"/>
	<path class="st0" d="M58.8,7.3c-0.9-0.9-1.7-1.2-2.4-0.8C57.1,6.7,57.8,7.8,58.8,7.3L58.8,7.3z"/>
	<path class="st0" d="M60.3,6.8c-1.1-0.8-1.9-1-2.5-0.6C58.8,6.7,59.6,7.2,60.3,6.8L60.3,6.8z"/>
	<path class="st0" d="M61.9,6.5c-1.2-0.8-2.1-1-2.6-0.6C59.9,6.2,61.3,6.9,61.9,6.5L61.9,6.5z"/>
	<path class="st0" d="M63.3,6c-1.1-0.5-1.9-0.7-2.3-0.4C61.8,6,62.8,6.5,63.3,6L63.3,6z"/>
	<path class="st0" d="M65.3,5.7c-0.9-0.3-1.8-0.4-2.5-0.2C63.8,5.9,64.7,6,65.3,5.7L65.3,5.7z"/>
	<path class="st0" d="M65.4,5.5c5.1,0.2,8.3,0.2,9.2,0.1C73.7,6.3,68,6.4,65.4,5.5L65.4,5.5z"/>
	<path class="st0" d="M64.7,6.1c0.5-0.1,1-0.2,1.5-0.1c0.8,0.3,2.1,0.4,3.8,0.6C69.4,7.2,65.9,6.6,64.7,6.1L64.7,6.1z"/>
	<path class="st0" d="M62.9,6.5c0.4,0,0.8-0.1,1.2-0.2c0.5,0.3,1.2,0.4,2.2,0.7C65.6,7.4,64.4,7.2,62.9,6.5L62.9,6.5z"/>
	<path class="st0" d="M61.4,6.9c0.5,0,0.9,0,1.1-0.2c0.6,0.4,1.4,0.5,1.7,0.9C63.1,8,62,7.1,61.4,6.9L61.4,6.9z"/>
	<path class="st0" d="M59.7,7.3c0.4,0,0.9-0.1,1.2-0.2c0.8,0.5,1.4,0.8,1.6,0.9C62.1,8.5,61,8.1,59.7,7.3L59.7,7.3z"/>
	<path class="st0" d="M58.3,7.8c0.5,0,0.8,0,1-0.2c0.5,0.3,1,0.6,1.7,1.1C60.6,9.1,59.7,8.8,58.3,7.8L58.3,7.8z"/>
	<path class="st0" d="M56.7,8.3c0.4,0,0.8,0,1.1-0.1c0.6,0.4,1.2,0.8,1.7,1.3C58.9,9.8,58,9.5,56.7,8.3L56.7,8.3z"/>
	<path class="st0" d="M58.2,10.1c-0.6-0.5-1.2-1-1.8-1.4c-0.2,0.1-0.6,0.1-1,0.1C56.6,10.2,57.5,10.6,58.2,10.1L58.2,10.1z"/>
	<path class="st0" d="M55,9.3c-0.3,0-0.7,0-1.1,0c1,1.4,1.9,2,2.8,1.6C56.5,10.6,55.9,10.1,55,9.3L55,9.3z"/>
	<path class="st0" d="M52.6,9.4c0.4,0,0.6,0,0.8,0c0.4,0.5,0.9,1.1,1.5,1.9C54.1,11.7,53.4,11,52.6,9.4L52.6,9.4z"/>
	<path class="st0" d="M53.2,11.6c0-0.3-0.4-0.9-1-1.9c-0.2-0.1-0.4-0.1-0.8-0.2C51.8,11.1,52.4,11.9,53.2,11.6L53.2,11.6z"/>
	<path class="st0" d="M51.7,11.5c-0.2-0.3-0.4-0.9-0.5-1.8c-0.2,0-0.4,0-0.6,0C50.6,11.1,51,11.7,51.7,11.5L51.7,11.5z"/>
	<path class="st0" d="M50.4,11.5c-0.6-0.1-1-0.6-0.9-1.7c0.3,0,0.5,0.1,0.7,0.1C50.1,10.4,50.2,10.9,50.4,11.5L50.4,11.5z"/>
	<path class="st0" d="M49,11.1c-0.6-0.2-0.8-0.7-0.6-1.3c0.2,0,0.4-0.1,0.5-0.1C48.9,10.1,49,10.6,49,11.1L49,11.1z"/>
	<path class="st0" d="M47.9,11.1c0-0.3,0-0.6,0-1c-0.2,0.1-0.5,0.3-0.7,0.5C47.5,11,47.7,11.1,47.9,11.1L47.9,11.1z"/>
	<path class="st0" d="M45.2,13.3c0.9-0.6,1.1-1.3,0.6-1.8C47.6,10.8,48.5,13.6,45.2,13.3L45.2,13.3z"/>
	<path class="st0" d="M41,15.2c-0.7-0.8,1.4-3.1,2.4-3.2c0-0.2-0.1-0.2-0.5-0.2c0.3-0.6,1.6-1.2,2.4-0.6c1,0.7,0,2.1-1.1,1.9
		C42.8,12.9,41.4,13.9,41,15.2L41,15.2z"/>
	<path class="st0" d="M42.5,14.3c0.9,0.5,0.9,1.1,0.3,1.4c0.1-0.4-0.1-0.7-0.6-1.1C42,14.5,42.2,14.2,42.5,14.3L42.5,14.3z"/>
	<path class="st0" d="M43.5,14.3c0.8,0.6,0.8,1.1,0.1,1.4c0.1-0.4-0.1-0.7-0.5-1.1C42.9,14.5,43.2,14.1,43.5,14.3L43.5,14.3z"/>
	<path class="st0" d="M44.3,14.3c0.9,0.5,0.9,1.1,0.3,1.4c0.1-0.4-0.1-0.7-0.6-1.1C43.8,14.5,44,14.1,44.3,14.3L44.3,14.3z"/>
	<path class="st0" d="M45.4,14.3c0.9,0.5,0.9,1.1,0.3,1.4c0.1-0.4-0.1-0.7-0.6-1.1C44.9,14.5,45.1,14.1,45.4,14.3L45.4,14.3z"/>
	<path class="st0" d="M46.3,14.3c0.9,0.5,0.9,1.1,0.3,1.4c0.1-0.4-0.1-0.7-0.6-1.1C45.8,14.5,46,14.1,46.3,14.3L46.3,14.3z"/>
	<path class="st0" d="M47.2,14.2c0.9,0.5,0.9,1.1,0.3,1.4c0.1-0.4-0.1-0.7-0.6-1.1C46.7,14.4,46.9,14,47.2,14.2L47.2,14.2z"/>
	<path class="st0" d="M26.9,5.2c-2.7,0.3-8,0.6-10.8,0.2C17.8,6.5,24.2,6,26.9,5.2L26.9,5.2z"/>
	<path class="st0" d="M27.5,6c-0.4-0.1-0.7-0.2-0.9-0.4c-1.7,0.6-3.4,0.9-4.9,1C22.3,7.2,25.3,6.7,27.5,6L27.5,6z"/>
	<path class="st0" d="M27.9,6.3c0.3,0.2,0.6,0.4,1,0.4c-1.2,0.6-3.5,1.3-4.3,0.8C26.4,6.9,27.6,6.5,27.9,6.3L27.9,6.3z"/>
	<path class="st0" d="M30.6,7.4c-0.6,0-1-0.2-1.3-0.4c-0.8,0.6-2.1,0.9-2.9,1.2C26.9,8.8,29.2,8.2,30.6,7.4L30.6,7.4z"/>
	<path class="st0" d="M31,7.8c0.3,0.2,0.7,0.3,1.3,0.4c-1.8,0.9-3.1,1.2-4,0.9C29.2,8.7,30,8.3,31,7.8L31,7.8z"/>
	<path class="st0" d="M34,9c-0.5,0-1-0.2-1.3-0.3C32,9,31.2,9.4,30.4,9.8C30.8,10.3,32.6,9.7,34,9L34,9z"/>
	<path class="st0" d="M35.2,9.7c-0.4-0.1-0.7-0.2-0.9-0.3c-0.7,0.3-1.3,0.7-1.8,0.9C32.9,10.7,34,10.4,35.2,9.7L35.2,9.7z"/>
	<path class="st0" d="M36.7,10.3c-0.3-0.1-0.5-0.2-0.7-0.3c-0.5,0.2-1,0.5-1.5,0.7C34.6,11,35.4,10.8,36.7,10.3L36.7,10.3z"/>
	<path class="st0" d="M39,10.9c-0.4,0-0.8-0.1-1.2-0.3c-0.7,0.5-1.3,0.9-1.7,1.3C36.6,12.2,37.6,11.9,39,10.9L39,10.9z"/>
	<path class="st0" d="M37.8,12.4c0.8,0.3,1.7-0.1,2.7-1.1c-0.5,0.1-0.9,0-1.2-0.1C38.8,11.6,38.3,12,37.8,12.4L37.8,12.4z"/>
	<path class="st0" d="M41.1,11.5c0.2,0.1,0.6,0.2,1.1,0.2c-1,1-1.9,1.3-2.6,1.1C40.2,12.4,40.6,12,41.1,11.5L41.1,11.5z"/>
	<path class="st0" d="M42.9,10.8c-0.3-0.1-0.5-0.2-0.7-0.3c-0.3,0.2-0.6,0.4-0.9,0.7C41.8,11.5,42.3,11.3,42.9,10.8L42.9,10.8z"/>
	<path class="st0" d="M39.7,10.9c0.3-0.3,0.7-0.5,1.1-0.7c0.2,0.1,0.5,0.2,0.8,0.2C40.7,11,40,11.2,39.7,10.9L39.7,10.9z"/>
	<path class="st0" d="M41.1,10c0.5-0.5,1-0.6,1.4-0.3C42.3,10.1,41.8,10.2,41.1,10L41.1,10z"/>
	<path class="st0" d="M41.5,9.2c-0.7-0.6-1.3,0.2-1.8,0.2C40.4,10,41.1,9.3,41.5,9.2L41.5,9.2z"/>
	<path class="st0" d="M40.5,8.6c-0.8-0.8-1.7,0.2-2.2,0.2C38.9,9.4,40.1,8.7,40.5,8.6L40.5,8.6z"/>
	<path class="st0" d="M39.5,7.5c-0.8-1-2.3,0.3-2.8,0.4C37.9,8.9,39.1,7.7,39.5,7.5L39.5,7.5z"/>
	<path class="st0" d="M38.3,6.8C37,5.7,35.9,7,35.2,7.1C36.1,8,37.7,6.8,38.3,6.8L38.3,6.8z"/>
	<path class="st0" d="M36.6,6c-1.1-0.6-2.2,0.3-2.7,0.4C34.7,7.1,36.1,6.1,36.6,6L36.6,6z"/>
	<path class="st0" d="M34.9,5.5c-1.2-0.6-2.3,0-2.8,0.2C33.3,6.5,34,5.7,34.9,5.5L34.9,5.5z"/>
	<path class="st0" d="M32.4,5.2C31.9,5,31.2,5,30.5,5.2c0.2,0.2,0.5,0.3,0.8,0.4C31.7,5.4,32.1,5.3,32.4,5.2L32.4,5.2z"/>
	<path class="st0" d="M30.9,5.7c-0.2-0.1-0.5-0.2-0.8-0.4c-0.6,0.4-1.2,0.6-1.7,0.8C28.8,6.5,29.7,6.3,30.9,5.7L30.9,5.7z"/>
	<path class="st0" d="M29.7,5.1c-0.8-0.1-1.7,0-2.5,0.4C27.7,5.9,28.6,5.7,29.7,5.1L29.7,5.1z"/>
	<path class="st0" d="M32.8,6.3c-0.3,0-0.9-0.3-1.2-0.5c-0.6,0.4-1.5,0.8-2,0.9C30.1,7.1,31.3,7,32.8,6.3L32.8,6.3z"/>
	<path class="st0" d="M34.3,7.1c-1.4,0.7-2.3,0.9-3,0.5c0.7-0.4,1.3-0.7,1.9-1C33.7,6.8,34,7,34.3,7.1L34.3,7.1z"/>
	<path class="st0" d="M35.7,7.9C34.9,8.5,34,8.7,33,8.4c0.6-0.4,1.2-0.7,1.7-1C35,7.6,35.4,7.8,35.7,7.9L35.7,7.9z"/>
	<path class="st0" d="M34.7,9.2c0.6-0.3,1.1-0.6,1.6-1c0.5,0.3,0.8,0.5,1.1,0.5C36.2,9.2,35.2,9.5,34.7,9.2L34.7,9.2z"/>
	<path class="st0" d="M36.4,9.9c0.5-0.3,1-0.6,1.4-0.8c0.3,0.2,0.6,0.4,0.9,0.4C37.9,10,37.2,10.1,36.4,9.9L36.4,9.9z"/>
	<path class="st0" d="M38.1,10.4c0.5-0.3,0.9-0.5,1.3-0.7c0.3,0.2,0.6,0.3,0.9,0.4C39.1,10.6,38.4,10.7,38.1,10.4L38.1,10.4z"/>
	<path class="st0" d="M35.5,12.2c0.4,0.2,0.8,0.3,1.4,0.2c-1.6,1-2.5,2.5-4.2,1.7C33.4,13.7,34.3,13,35.5,12.2L35.5,12.2z"/>
	<path class="st0" d="M37.4,12.7c0.5,0.2,1,0.3,1.4,0.1c-1.3,0.9-2.6,2.7-4.3,2C35.5,14.2,36.5,13.4,37.4,12.7L37.4,12.7z"/>
	<path class="st0" d="M40.6,13.2c-0.5,0.1-1,0-1.4-0.1c-0.7,0.6-1.5,1.3-2.4,2.1C38.4,15.7,39.4,14.2,40.6,13.2L40.6,13.2z"/>
	<path class="st0" d="M41.2,13.2c-0.9,0.8-1.8,1.6-2.3,2.1c0.5,0.2,1.1-0.1,1.8-0.7C40.5,14.3,41,13.7,41.2,13.2L41.2,13.2z"/>
	<path class="st0" d="M48.7,7.4c-0.1,0-0.2,0-0.3,0c-0.2,0.1-0.1,0.6,0.3,0.5c0.1,0,0.1-0.1,0.1-0.2c0,0-0.1-0.1-0.1-0.2
		C48.7,7.6,48.8,7.5,48.7,7.4L48.7,7.4z"/>
	<polygon class="st0" points="6.9,17.5 8.6,17.5 10.5,20.4 12.3,17.5 14,17.5 14,26.1 12.4,26.1 12.4,20.3 10.5,23.3 8.6,20.3 
		8.6,26.1 6.9,26.1 6.9,17.5 	"/>
	<path class="st0" d="M19.8,17.5c2.4,0,4.3,1.9,4.3,4.3s-1.9,4.3-4.3,4.3c-2.4,0-4.3-1.9-4.3-4.3S17.4,17.5,19.8,17.5L19.8,17.5z
		 M19.8,19.1c1.5,0,2.7,1.2,2.7,2.7c0,1.5-1.2,2.7-2.7,2.7c-1.5,0-2.7-1.2-2.7-2.7C17.1,20.3,18.3,19.1,19.8,19.1L19.8,19.1z"/>
	<path class="st0" d="M36.5,17.5c2.4,0,4.3,1.9,4.3,4.3s-1.9,4.3-4.3,4.3c-2.4,0-4.3-1.9-4.3-4.3S34.1,17.5,36.5,17.5L36.5,17.5z
		 M36.5,19.1c1.5,0,2.7,1.2,2.7,2.7c0,1.5-1.2,2.7-2.7,2.7c-1.5,0-2.7-1.2-2.7-2.7C33.8,20.3,35,19.1,36.5,19.1L36.5,19.1z"/>
	<polygon class="st0" points="28.9,19.1 28.9,26.1 27.1,26.1 27.1,19.1 24.8,19.1 24.8,17.5 31.1,17.5 31.1,19.1 28.9,19.1 	"/>
	<path class="st0" d="M50.9,17.5c1.1,0,2.1,0.4,2.9,1.1l-1.1,1.1c-0.5-0.4-1.1-0.6-1.8-0.6c-1.5,0-2.7,1.2-2.7,2.7
		c0,1.5,1.2,2.7,2.7,2.7c1.2,0,2.3-0.8,2.6-2h-2.5V21l4,0c0,0.3,0.1,0.5,0.1,0.8c0,2.4-1.9,4.3-4.3,4.3c-2.4,0-4.3-1.9-4.3-4.3
		S48.5,17.5,50.9,17.5L50.9,17.5z"/>
	<path class="st0" d="M56.9,17.5h1.8l0,5.7c0,0.4,0.3,1.1,0.8,1.1l1.7,0c0.4,0,0.8-0.6,0.8-1.1l0-5.7h1.8v6.1c0,1-0.9,2.4-2,2.4H59
		c-1.1,0-2.1-1.3-2.1-2.4V17.5L56.9,17.5z"/>
	<polygon class="st0" points="67.8,24.5 71.6,24.5 71.6,26.1 65.7,26.1 65.7,24.5 69.5,19.1 65.7,19.1 65.7,17.5 71.6,17.5 
		71.6,19.1 67.8,24.5 	"/>
	<polygon class="st0" points="75.6,24.5 79.5,24.5 79.5,26.1 73.5,26.1 73.5,24.5 77.4,19.1 73.5,19.1 73.5,17.5 79.5,17.5 
		79.5,19.1 75.6,24.5 	"/>
	<polygon class="st0" points="81.4,17.5 83.1,17.5 83.1,26.1 81.4,26.1 81.4,17.5 	"/>
</g>
</svg>
