<?xml version="1.0" encoding="utf-8"?>
<!-- Generator: Adobe Illustrator 27.1.1, SVG Export Plug-In . SVG Version: 6.00 Build 0)  -->
<svg version="1.1" id="Layer_1" xmlns="http://www.w3.org/2000/svg" xmlns:xlink="http://www.w3.org/1999/xlink" x="0px" y="0px"
	 viewBox="0 0 40 30" style="enable-background:new 0 0 40 30;" xml:space="preserve">
<style type="text/css">
	.st0{fill:#9C9C9C;}
</style>
<g>
	<g>
		<g>
			<g>
				<path class="st0" d="M20,28.1c-3.5,0-6.8-1.4-9.3-3.8c-2.5-2.5-3.8-5.8-3.8-9.3c0-3.5,1.4-6.8,3.8-9.3c2.5-2.5,5.8-3.8,9.3-3.8
					c3.5,0,6.8,1.4,9.3,3.8c2.5,2.5,3.8,5.8,3.8,9.3c0,3.5-1.4,6.8-3.8,9.3C26.8,26.7,23.5,28.1,20,28.1z M20,2
					c-3.5,0-6.7,1.3-9.2,3.8C8.4,8.3,7,11.5,7,15c0,3.5,1.3,6.7,3.8,9.2c2.4,2.4,5.7,3.8,9.2,3.8c3.5,0,6.7-1.3,9.2-3.8
					c2.4-2.4,3.8-5.7,3.8-9.2c0-3.5-1.3-6.7-3.8-9.2C26.7,3.4,23.5,2,20,2z"/>
			</g>
		</g>
		<g>
			<path class="st0" d="M30,16.7c0.2,0,1.7,0,1.7,0c0.1-0.6,0.1-1.1,0.1-1.7c0-6.5-5.3-11.9-11.9-11.9C13.5,3.1,8.1,8.5,8.1,15
				c0,0.6,0,1.2,0.1,1.7l3.9,0c0.1,0,0.2-0.1,0.2-0.2c0-0.1,0-0.1-0.1-0.2l-1.5-1c0,0,0,0-0.2-0.1l0,0c-0.4-0.3-0.8-1.1-0.8-1.8
				c0-0.7,0.2-1.3,0.6-1.7c0,0,0.1-0.1,0.1-0.1c0.3-0.3,0.7-0.5,1-0.5c0.2,0,0.2,0,0.3,0c0.1,0,2.2,0,2.2,0l1.3,2.4l-3.2,0
				c-0.1,0-0.2,0.1-0.2,0.2c0,0.1,0,0.1,0.1,0.2l2,1.4c0.1,0,0.1,0.1,0.2,0.1c0.4,0.3,0.7,0.9,0.7,1.6c0,1.2-0.8,2.1-1.9,2.2
				c-0.1,0-0.2,0-0.2,0l-4.1,0c1.7,4.5,6,7.8,11.1,7.8c5.1,0,9.5-3.2,11.1-7.8c-0.6,0-1,0-1.5,0c-2.1,0-2-1.8-2-1.8v-1.6l-2,3.4
				l-1.9,0v-3.4l-1.9,3.4l-2.8,0l3.9-6.7c0,0,0.2-0.4,0.5-0.7c0,0,0,0,0-0.1c0.2-0.2,0.5-0.4,0.8-0.5c0.1,0,0.2,0,0.3,0
				c0.1,0,0.1,0,0.1,0c0.1,0,0.2,0,0.2,0l0.8,0v3.9c0,0,1.6-2.6,1.9-3.1c0,0,0,0,0,0c0.3-0.4,0.7-0.7,1.2-0.7c0.1,0,0.7,0,0.7,0
				l0.4,0v5.5C29.8,16.5,29.8,16.7,30,16.7z M22.6,11.3c-0.1,0.1-0.2,0.4-0.2,0.4l-5.6,9.9h-2.4l3.3-5.9L14.9,11c0,0,1.4,0,1.9,0
				c0.5,0,0.7,0.2,1,0.7c0.3,0.6,1,1.8,1,1.8l1-1.8c0,0,0.2-0.4,0.4-0.6c0.2-0.2,0.5-0.2,0.5-0.2h2C22.8,11,22.7,11.1,22.6,11.3z"/>
		</g>
	</g>
</g>
</svg>
