<?xml version="1.0" encoding="utf-8"?>
<!-- Generator: Adobe Illustrator 27.1.1, SVG Export Plug-In . SVG Version: 6.00 Build 0)  -->
<svg version="1.1" id="Layer_1" xmlns="http://www.w3.org/2000/svg" xmlns:xlink="http://www.w3.org/1999/xlink" x="0px" y="0px"
	 viewBox="0 0 120 30" style="enable-background:new 0 0 120 30;" xml:space="preserve">
<style type="text/css">
	.st0{fill:#9C9C9C;}
</style>
<g>
	<path class="st0" d="M17,12.2c0,0,0,0.3,0,0.8l0.7,0.4l0.6-0.4c0-0.1,0-0.1,0-0.2c0-0.9-0.6-1.3-0.6-1.3C16.9,11.7,17,12.2,17,12.2
		z M21,17c0,0,0.1-0.7-0.8-1.2c-0.1,0-0.2-0.1-0.4-0.2c-0.3,0.2-0.6,0.3-0.9,0.5l0,0.5c0.7,0.4,1.1,0.6,1.1,0.6S20.4,17.5,21,17z
		 M18.2,7.7c0.3,0.8,0.5,1.7,0.5,1.9c-0.1,0.3-0.7,0.5-0.7,0.8c0,0.3,0.4,0.6,0.4,0.6c0.4,0.2,0.7,1.4,0.7,1.4l0,0.2l2.8-1.7
		c0.4-0.3,0.8,0.1,0.8,0.1c0.3,0.5-0.3,0.8-0.3,0.8s-1.6,0.9-3.3,1.8l0,0.6l0.7,0.4c1.6-0.9,3-1.8,3.2-1.9c0.5-0.2,0.7,0.2,0.7,0.2
		c0.2,0.6-0.4,0.7-0.4,0.7s-1.2,0.7-2.6,1.6l0.4,0.3c0,0,0.9,0.8,0.9,1.3c0,0,0,0.5,0.3,0.7c0.3,0.2,0.8-0.3,1.1-0.2
		c0.1,0,0.6,0.5,1,1c0.4-1,0.7-2,0.7-3.2C25,11.1,22,7.9,18.2,7.7z M16.9,15.4c0.2,0.1,0.5,0.3,0.7,0.4c0.2-0.1,0.4-0.2,0.5-0.3
		c0-0.3,0-0.6,0-0.9c-0.2-0.1-0.4-0.2-0.6-0.3c-0.2,0.1-0.5,0.3-0.7,0.4C16.9,15,16.9,15.2,16.9,15.4z M22.3,19.1
		c-0.2-0.2-0.3-0.8-0.7-0.8c-0.4-0.1-0.9,0.2-1.2,0.1c-0.1,0-0.6-0.3-1.4-0.8l0,3.5c0,0.5-0.5,0.7-0.5,0.7c-0.6,0-0.5-0.7-0.5-0.7
		s0.1-1.9,0.2-3.9c-0.1-0.1-0.3-0.2-0.5-0.3c-0.3,0.2-0.5,0.3-0.8,0.4c0,1.9-0.1,3.6-0.1,3.8c-0.1,0.5-0.5,0.5-0.5,0.5
		c-0.5-0.1-0.4-0.7-0.4-0.7s0-1.4,0-3.1c-0.7,0.4-1.2,0.7-1.3,0.7c-0.3,0.1-0.8-0.2-1.2-0.1c-0.4,0.1-0.5,0.6-0.7,0.8
		c-0.2,0.2-0.4,0.2-0.4,0.2s-0.2,0.1-0.5,0.1c1.3,1.8,3.4,3,5.8,3c2.4,0,4.5-1.2,5.9-3c-0.5-0.1-0.8-0.2-0.8-0.2
		S22.5,19.3,22.3,19.1z M14.9,15.9c-0.8,0.5-0.8,1.2-0.8,1.2c0.6,0.6,0.9,0.3,0.9,0.3s0.4-0.2,1-0.6c0-0.3,0-0.6,0-0.9
		c-0.2-0.1-0.4-0.2-0.6-0.4C15.2,15.7,15,15.8,14.9,15.9z M12.9,17.5c0.3-0.2,0.3-0.7,0.3-0.7c-0.1-0.5,0.9-1.3,0.9-1.3l0.6-0.4
		c-1.6-0.9-2.8-1.7-2.8-1.7s-0.6-0.1-0.4-0.7c0,0,0.2-0.4,0.7-0.2c0.2,0.1,1.8,1,3.4,2l0.5-0.3c0-0.3,0-0.6,0-0.8
		c-1.7-0.9-3.3-1.8-3.3-1.8s-0.6-0.3-0.3-0.8c0,0,0.4-0.3,0.8-0.1l2.8,1.7c0-0.6,0-1.1,0.1-1.1c0.1-0.3,0.6-0.6,0.7-1
		c0.1-0.3-0.3-0.7-0.3-1c-0.1-0.3,0.1-0.5,0.1-0.5s0.2-0.6,0.4-1.3c-3.7,0.3-6.7,3.5-6.7,7.4c0,1.1,0.2,2.1,0.6,3
		c0.3-0.4,0.6-0.7,0.8-0.7C12.1,17.2,12.6,17.7,12.9,17.5z"/>
	<g>
		<path class="st0" d="M17.7,24.6c-5.2,0-9.5-4.3-9.5-9.6c0-5.3,4.3-9.6,9.5-9.6c5.2,0,9.5,4.3,9.5,9.6C27.2,20.3,23,24.6,17.7,24.6
			z M17.7,5.8c-5,0-9,4.1-9,9.2c0,5.1,4.1,9.2,9,9.2c5,0,9-4.1,9-9.2C26.8,9.9,22.7,5.8,17.7,5.8z"/>
	</g>
	<g>
		<polygon class="st0" points="31.4,5.7 35.4,5.7 37.5,13.3 39.5,5.7 43.5,5.7 39.4,18.1 39.4,24.5 35.3,24.5 35.2,18.3 		"/>
		<path class="st0" d="M51.6,5.6h-5l-3.8,19h3.8l1-4.4h3.1l1.2,4.4h3.5L51.6,5.6z M48.3,16.4l0.7-5l1,5H48.3z"/>
		<path class="st0" d="M81,5.6h-5l-3.8,19H76l1-4.4h3.1l1.2,4.4h3.5L81,5.6z M77.7,16.4l0.7-5l1,5H77.7z"/>
		<path class="st0" d="M108,5.6h-5l-3.8,19h3.8l1-4.4h3.1l1.2,4.4h3.5L108,5.6z M104.7,16.4l0.7-5l1,5H104.7z"/>
		<polygon class="st0" points="60.5,24.5 57,24.5 57,5.7 62.4,5.7 63.6,13.7 65.4,5.8 70.4,5.8 70.4,24.4 67,24.4 67,14.6 
			65.2,24.5 62.4,24.5 60.5,14.9 		"/>
		<polygon class="st0" points="86.5,5.7 90.5,5.7 90.5,13.3 93.8,13.3 93.8,5.8 97.6,5.8 97.6,24.4 93.7,24.4 93.7,16.9 90.5,16.9 
			90.5,24.4 86.5,24.4 		"/>
	</g>
</g>
</svg>
