<?xml version="1.0" encoding="utf-8"?>
<!-- Generator: Adobe Illustrator 27.1.1, SVG Export Plug-In . SVG Version: 6.00 Build 0)  -->
<svg version="1.1" id="Layer_1" xmlns="http://www.w3.org/2000/svg" xmlns:xlink="http://www.w3.org/1999/xlink" x="0px" y="0px"
	 viewBox="0 0 50 30" style="enable-background:new 0 0 50 30;" xml:space="preserve">
<style type="text/css">
	.st0{fill:#9C9C9C;}
</style>
<g>
	<g>
		<g>
			<path class="st0" d="M30.3,17.6c-0.8,0-1.6,0-2.4,0c-0.3,0-0.5,0.3-0.5,0.5c0,0,0.1,0.1,0.1,0.1c0.1,0,0.1,0,0.2,0
				c1.2,0,2.4,0,3.5,0c0.2,0,0.3,0,0.5,0c0.6,0.1,0.9,0.5,0.7,1.1c-0.1,0.3-0.2,0.6-0.3,0.9c-0.2,0.5-0.5,0.8-1,0.9
				c-0.2,0.1-0.5,0.1-0.7,0.1c-1.3,0-2.7,0-4,0c-0.2,0-0.4,0-0.6-0.1c-0.4-0.1-0.6-0.6-0.5-1c0,0,0.1-0.1,0.2-0.1c0.3,0,0.6,0,0.9,0
				c1.3,0,2.6,0,3.9,0c0.4,0,0.4-0.2,0.5-0.5c0,0-0.1-0.1-0.1-0.1c0,0-0.1,0-0.2,0c-1.2,0-2.4,0-3.6,0c-0.3,0-0.5,0-0.8-0.1
				c-0.4-0.1-0.5-0.4-0.4-0.8c0.1-0.4,0.2-0.7,0.3-1.1c0.2-0.5,0.6-0.8,1.1-0.9c0.2,0,0.4-0.1,0.6-0.1c1.3,0,2.7,0,4,0
				c0.2,0,0.5,0,0.7,0.1c0.4,0.1,0.6,0.6,0.4,1c0,0-0.1,0.1-0.2,0.1c-0.6,0-1.3,0-1.9,0C30.7,17.6,30.5,17.6,30.3,17.6z"/>
			<path class="st0" d="M17.1,21.2c0.1-0.4,0.3-0.8,0.4-1.2c0.2-0.8,0.5-1.6,0.7-2.4c0.2-0.7,0.7-1.1,1.5-1.1c1.4,0,2.9,0,4.3,0
				c0.2,0,0.4,0.1,0.6,0.1c0.4,0.1,0.5,0.5,0.4,0.8c-0.3,0.9-0.6,1.9-0.9,2.8c-0.2,0.7-1,1.1-1.8,1c0.2-0.5,0.3-1,0.5-1.5
				c-0.1,0-0.2,0-0.2,0c-1.2,0-2.3,0-3.5,0c-0.2,0-0.2,0.1-0.3,0.2c-0.1,0.2-0.2,0.5-0.3,0.7C18.4,21,17.7,21.3,17.1,21.2z
				 M19.4,18.4c0.1,0,0.2,0,0.2,0c0.5,0,1,0,1.5,0c0.7,0,1.3,0,2,0c0.1,0,0.2,0,0.2-0.1c0.1-0.2,0.1-0.4,0.2-0.5
				c0-0.1,0-0.2-0.2-0.2c-1.2,0-2.3,0-3.5,0c-0.1,0-0.2,0.1-0.3,0.2C19.6,18,19.5,18.2,19.4,18.4z"/>
			<path class="st0" d="M32.7,21.1c0.1-0.3,0.2-0.5,0.2-0.8c0.5-1.7,1.1-3.5,1.6-5.2c0.3-0.9,1.1-1.2,1.8-1.1
				c-0.3,0.8-0.5,1.6-0.8,2.4c0.1,0,0.2,0,0.3,0c1.2,0,2.4,0,3.7,0c0.2,0,0.4,0,0.6,0.1c0.5,0.1,0.7,0.5,0.6,1
				c-0.3,0.9-0.5,1.8-0.8,2.7c-0.2,0.7-1,1.1-1.8,1c0.1-0.3,0.2-0.5,0.2-0.8c0.3-0.8,0.5-1.7,0.8-2.5c0.1-0.2,0-0.2-0.2-0.2
				c-1.1,0-2.3,0-3.4,0c-0.2,0-0.3,0.1-0.4,0.3c-0.2,0.7-0.4,1.5-0.7,2.2C34.2,20.9,33.4,21.2,32.7,21.1
				C32.7,21.2,32.7,21.2,32.7,21.1z"/>
		</g>
		<path class="st0" d="M10,21.1c0.5-0.1,0.8-0.5,1-0.9c0.2-0.7,0.5-1.5,0.7-2.2c0.1-0.3,0.2-0.3,0.4-0.3c0.3,0,0.6,0,0.9,0
			c-0.4,1.2-0.7,2.4-1.1,3.6c0.2,0,0.4,0,0.6,0c0.6-0.1,1-0.5,1.2-1c0.2-0.8,0.5-1.5,0.7-2.3c0-0.1,0.1-0.2,0.3-0.2
			c0.2,0,0.5,0,0.7,0c0.2,0,0.3,0,0.2,0.3c-0.2,0.5-0.3,1.1-0.5,1.6c-0.2,0.5-0.3,1-0.5,1.5c0,0.1,0,0.1,0,0.2
			c0.5,0.2,1.2-0.1,1.5-0.6c0.2-0.2,0.3-0.5,0.4-0.8c0.3-0.8,0.5-1.6,0.7-2.3c0.1-0.4-0.1-0.8-0.5-0.9c-0.2-0.1-0.4-0.1-0.7-0.1
			c-1.4,0-2.7,0-4.1,0c-0.3,0-0.5,0-0.8,0.1c-0.5,0.1-0.8,0.4-0.9,0.9c-0.4,1.2-0.7,2.3-1.1,3.5c0,0,0,0,0,0.1v0.2
			C9.5,21.2,9.8,21.2,10,21.1z"/>
	</g>
	<g>
		<path class="st0" d="M25.6,2.9c-0.8,2.2-1.5,4.4-2.3,6.7c-0.1,0.3-0.2,0.7-0.4,1c-0.2,0.5-0.7,0.8-1.2,0.8c-2.8,0-5.7,0-8.5,0.1
			c-0.1,0-0.1,0-0.2,0c-0.3,0-0.6,0.2-0.7,0.5c-0.1,0.3,0,0.6,0.2,0.8c0.4,0.3,0.7,0.6,1.1,0.9c0.7,0.5,1.4,1.1,2.1,1.6
			c0.1,0.1,0.2,0.1,0.4,0.1c0.5,0,1,0,1.5,0c0.1,0,0.1,0,0.2-0.1c-0.9-0.8-1.8-1.6-2.8-2.4c0.1,0,0.2,0,0.2,0c2.1,0,4.1-0.1,6.2,0
			c1.2,0,2.5-0.7,2.9-2.1c0.6-2,1.4-4,2.1-6c0-0.1,0-0.1,0.1-0.2c0,0.1,0.1,0.1,0.1,0.2c0.8,2.1,1.7,4.3,2.5,6.4
			c0.3,0.6,0.7,1.1,1.4,1.3c0.2,0,0.3,0.1,0.5,0.1c2.1,0,4.1-0.1,6.2-0.1c0.1,0,0.2,0,0.3,0c0.1,0,0.2-0.1,0.2-0.2
			c0-0.1-0.1-0.2-0.2-0.2c-0.4,0-0.7-0.1-1.1-0.1c-1.2-0.1-2.4-0.2-3.5-0.3c-0.6,0-1.2-0.1-1.8-0.1c-0.6,0-0.9-0.3-1.1-0.8
			c-0.8-2.6-1.7-5.1-2.5-7.7c-0.1-0.3-0.2-0.5-0.3-0.8c-0.1-0.3-0.2-0.5-0.5-0.7h-0.4C25.8,1.8,25.7,2.4,25.6,2.9z"/>
		<path class="st0" d="M20.7,20.8c-0.3,0-0.6,0-0.9,0c0,0-0.1,0.1-0.1,0.2c-0.2,0.8-0.4,1.6-0.6,2.4c-0.3,1.3-0.7,2.7-1,4
			c-0.1,0.2-0.1,0.5-0.2,0.7c0,0.1,0,0.2,0,0.3l0.3,0C19.1,25.9,19.9,23.4,20.7,20.8z"/>
	</g>
</g>
</svg>
