<?xml version="1.0" encoding="utf-8"?>
<!-- Generator: Adobe Illustrator 27.1.1, SVG Export Plug-In . SVG Version: 6.00 Build 0)  -->
<svg version="1.1" id="Layer_1" xmlns="http://www.w3.org/2000/svg" xmlns:xlink="http://www.w3.org/1999/xlink" x="0px" y="0px"
	 viewBox="0 0 90 30" style="enable-background:new 0 0 90 30;" xml:space="preserve">
<style type="text/css">
	.st0{fill:#9C9C9C;}
</style>
<path class="st0" d="M80.1,8.7h0.2l0.4,0.6h0.4l-0.5-0.6c0.2,0,0.4-0.2,0.4-0.4c0-0.4-0.3-0.5-0.7-0.5h-0.6v1.5h0.3V8.7z M80.1,8
	h0.2c0.3,0,0.4,0.1,0.4,0.3c0,0.2-0.1,0.3-0.3,0.3h-0.3V8z M18.5,19c0.4-1,1-1.9,1.8-2.6l0,0c1.4-1.3,3.2-2.2,5-2.2
	c0.1,0,0.2-0.2,0.1-0.3c-0.9-1.1-1.7-2.3-2.3-3.6c-1.1,0.2-2,0.8-2.9,1.4c-1.6,1.3-2.7,2.8-3.4,4.6c-0.7,1.7-1.1,3.5-1.1,5.5
	c-1.3-1.7-2.1-3.5-2.6-5.5h-1.8h1.8c-0.1-0.3-0.2-0.7-0.2-1c-0.6-2.5,0.1-5.2,1.7-7.1c0.3-0.5,0.8-0.9,1.1-1.4c-1-1.1-2-2.3-2.6-3.6
	c-0.1-0.3-0.2-0.7-0.4-1c-0.5,0.2-1,0.6-1.5,1C9,5.3,7.8,7.8,8,10.9c0.1,1.9,0.6,3.8,1.4,5.5c0.9,2,2.2,3.9,3.8,5.6l4.7,0
	C17.9,21,18.1,20,18.5,19z M81.2,11.9L81.2,11.9c-0.5,0.1-0.9,0.1-1.4,0.2c-0.6-0.4-1.2-0.8-1.9-1.1c-0.2,0.2-0.5,0.4-0.8,0.5
	c-0.3,0.1-0.7,0.1-1-0.2c-0.5-0.3-0.7-0.8-0.7-1.3l0.6-2.9l0-0.1c-1.1,0.1-2.3,0-3.5,0c-0.5,0.1-0.3,0.6-0.5,0.9
	c-0.6-0.4-1.3-0.7-2-0.9c-2.2-0.5-4.3,0.4-5.7,2.2c-0.4,0.4-0.5,0.9-0.9,1.3l-2.8,1.8c-0.1,0-0.2,0.1-0.2,0c-0.4-1.3-1.5-2.6-2.8-3
	c-2.7-0.7-5.3,0.3-7.2,2.2c-0.1,0.3-0.1,0.6-0.2,0.9c-1.5,1-3,2.2-4.6,3.2c-0.1,0.1-0.2,0-0.2,0c-0.2-1.3-0.9-2.6-2-3.5
	c-0.3-0.2-0.5-0.4-0.9-0.4L41,12.9l-4,3.5l-3.6,3.1c-0.6,0.4-1.4,0.5-2.1,0.3c-0.1,0-0.3,0-0.3-0.1l3.6-3.2l0.1-0.1l0.1-0.1
	c-0.2-0.4-0.4-0.9-0.7-1.2c-1.1-1.6-3.3-2-5-1.5c-1.4,0.4-2.5,1.6-3.1,2.8c-0.2,0.4-0.3,0.8-0.4,1.2L18.7,22L18,22.5
	c-0.1,0-0.2,0.1-0.2,0c0-0.1,0-0.3,0-0.4h-4.7c0.6,0.6,1.2,1.3,1.8,1.9c-0.3,0.1-0.7,0.2-1,0.2c-1.1,0.2-2.2,0.4-3.3,0.7
	c-0.3,1-0.8,1.9-1.5,2.6c0,0.1-0.1,0.2,0,0.2l24-4.7l5-1l5.7-1.1c1.6-0.3,3.2-0.7,4.9-0.8c0.1,0.5-0.2,1-0.2,1.5
	c1.1-0.2,2.1-0.4,3.1-0.6l0.1-0.1l0.3-1.8l0.1-0.1l13.6-2.6l1.3-0.2l8.7-1.7l6.1-1.1l0.1-0.1C81.7,12.8,81.4,12.4,81.2,11.9z
	 M27.6,21.6L25,22L20.3,23l1.4-0.9l3.9-2.6c0.5,0,0.6,0.6,1,0.9c0.4,0.4,0.9,0.7,1.3,1.1L27.6,21.6z M28.8,18.9
	c-0.1-0.4-0.1-0.9,0.1-1.3c0.4-0.7,1.2-0.9,2-0.8c0.2,0,0.3,0.2,0.5,0.3l0,0.1l-2.3,1.9C28.9,19.1,28.8,19,28.8,18.9z M40.1,17.7
	c-0.3,0.6-1.4,0.3-1.3,1.2c0.1,0.2,0.2,0.4,0.3,0.6c-1.3,0.3-2.7,0.5-4,0.8l0.1-0.2l4.2-3.7l0.4-0.3c0.1,0,0.1,0,0.2,0l0.2,0.3
	l0.1,0.1C40.5,16.9,40.4,17.4,40.1,17.7z M54,16.8L52.7,17l-0.1-0.1c0-0.2,0.1-0.3,0.1-0.5h-3.2h0c-0.1,0.4-0.1,0.8-0.3,1.2
	c-1.4,0.3-2.8,0.6-4.2,0.8c0.1-0.3,0.2-0.6,0.4-0.9c0.2-0.3,0.6-0.4,0.9-0.6l0.9-0.5l2.5-1.6l0.1,0c-0.1,0.5-0.1,1.1-0.2,1.6l3.2,0
	c0-0.1,0.1-0.3,0.1-0.4l0.1,0c0.2,0.2,0.4,0.3,0.5,0.4h0C53.7,16.5,53.9,16.6,54,16.8L54,16.8z M56.2,14.5c-0.3,0.4-0.8,0.6-1.3,0.5
	c-0.6-0.1-1.1-0.5-1.4-1.1c-0.2-0.6-0.2-1.3,0.3-1.7c0.5-0.4,1.3-0.3,1.8,0c0.3,0.2,0.6,0.5,0.7,0.9C56.5,13.5,56.5,14.1,56.2,14.5z
	 M59.2,15.8c0.2-0.4,0.5-0.6,0.6-1l3.6-2.4c0,0,0.1,0,0.1,0c0.1,0.9,0.7,1.8,1.5,2.3L59.2,15.8z M69.2,12.3
	c-0.3,0.4-0.8,0.4-1.3,0.3c-0.5-0.1-0.9-0.5-1-1c-0.2-0.4-0.1-1,0.2-1.3c0.4-0.4,1-0.4,1.5-0.2c0.3,0.2,0.6,0.5,0.8,0.8
	C69.5,11.3,69.5,12,69.2,12.3z M71.8,13.5c0-0.2,0.2-0.3,0.2-0.4l0.2-0.5c0.4,0.1,0.6,0.5,1,0.6C72.9,13.3,72.3,13.4,71.8,13.5z
	 M80.4,9.8c0.4,0,0.7-0.1,0.9-0.4c0.2-0.2,0.4-0.6,0.4-0.9v0c0-0.4-0.1-0.7-0.4-0.9c-0.2-0.2-0.6-0.4-0.9-0.4h0
	c-0.4,0-0.7,0.1-0.9,0.4c-0.2,0.2-0.4,0.6-0.4,0.9v0c0,0.4,0.1,0.7,0.4,0.9C79.7,9.6,80,9.8,80.4,9.8z M79.3,8.5
	c0-0.3,0.1-0.6,0.3-0.8c0.2-0.2,0.5-0.3,0.8-0.3v0h0v0c0.3,0,0.6,0.1,0.8,0.3c0.2,0.2,0.3,0.5,0.3,0.8h0v0h0c0,0.3-0.1,0.6-0.3,0.8
	c-0.2,0.2-0.5,0.3-0.8,0.3c-0.3,0-0.6-0.1-0.8-0.3C79.4,9.1,79.3,8.8,79.3,8.5L79.3,8.5z"/>
</svg>
