<?xml version="1.0" encoding="utf-8"?>
<!-- Generator: Adobe Illustrator 27.1.1, SVG Export Plug-In . SVG Version: 6.00 Build 0)  -->
<svg version="1.1" id="Layer_1" xmlns="http://www.w3.org/2000/svg" xmlns:xlink="http://www.w3.org/1999/xlink" x="0px" y="0px"
	 viewBox="0 0 90 30" style="enable-background:new 0 0 90 30;" xml:space="preserve">
<style type="text/css">
	.st0{fill:#9C9C9C;}
</style>
<g id="surface1_00000124128444453580290020000018023960770288053895_">
	<path class="st0" d="M36.4,10.3l-3-5.1l-0.1-0.1l-0.2-0.3l-0.4-0.3l-0.4-0.2l-0.3-0.1h-0.2l-0.3,0.1l-0.4,0.1l-0.1,0l-0.2,0.1
		L30.5,5l-0.3,0.6l0,0.7l0.1,0.5L30.4,7l0,0l0.6,1.1l0,0l0.1,0.3v0.2l-0.1,0.2L30.9,9l-0.3,0.2l-0.2,0.1H16.8l-0.2-0.1L16.3,9
		l-0.2-0.3L16,8.6V8.4l0.1-0.3l0,0L16.8,7l0,0l0.1-0.1L17,6.3l0-0.6l0-0.1l0-0.1L16.7,5l-0.4-0.4l-0.1-0.1l-0.1,0l-0.4-0.1l-0.3-0.1
		h-0.2l-0.3,0.1l-0.4,0.2L14,4.8l-0.2,0.3l-0.1,0.1l-3,5.1l-0.1,0.1L10.6,11l0,0.7l0.3,0.6l0.4,0.4l0.2,0.1l0.1,0l0.4,0.1l0.3,0.1
		H13l0.1,0l0.2,0.1l0.3,0.2l0.2,0.2l0.1,0.1l5.7,9.8l0,0l0.2,0.3l0.6,0.7l1,0.8l1.1,0.5l0.9,0.2h0.6l0.9-0.2l1.1-0.5l1-0.8l0.6-0.7
		l0.2-0.3h0v0h0l5.7-9.8l0.1-0.1l0.2-0.2l0.3-0.2l0.2-0.1l0.1,0H35l0.3-0.1l0.4-0.1l0.1,0l0.1-0.1l0.4-0.4l0.3-0.5l0-0.1l0-0.1
		l0-0.6l-0.2-0.6L36.4,10.3 M28.5,14.5l-4,7l0,0.1l-0.1,0.2l-0.2,0.2L23.9,22l-0.2,0h-0.1l-0.2,0l-0.2-0.1l-0.2-0.2l-0.1-0.2l0-0.1
		l-4-7l0-0.1L18.5,14l0.1-0.5l0-0.1l0-0.1l0.1-0.2l0.2-0.2l0.3-0.1l0.2,0h8.1l0.2,0l0.3,0.1l0.2,0.2l0.1,0.2l0,0.1l0,0.1l0.1,0.5
		L28.5,14.5L28.5,14.5z"/>
	<path class="st0" d="M48.3,7.9h-0.3L47,8.1l-1.2,0.4L44.8,9l-0.9,0.8l-0.8,0.9l-0.6,1.1l-0.4,1.2L42,13.9v6.9l0.1,0.4l0.3,0.4
		l0.4,0.3l0.4,0.1h0.3l0.4-0.1l0.4-0.3l0.3-0.4l0.1-0.4V14l0.1-0.5l0.2-0.6l0.3-0.6l0.4-0.5l0.5-0.4l0.6-0.3l0.7-0.2l0.5-0.1h0.3
		l0.5,0.1l0.6,0.2l0.6,0.3l0.5,0.4l0.4,0.5l0.3,0.6l0.2,0.6l0.1,0.5v6.8l0.1,0.4l0.3,0.4l0.4,0.3l0.4,0.1h0.3l0.4-0.1l0.4-0.3
		l0.3-0.4l0.1-0.4v-6.9l-0.1-0.9L54,11.8l-0.6-1.1l-0.8-0.9L51.7,9l-1.1-0.6l-1.2-0.4l-0.9-0.1H48.3z"/>
	<path class="st0" d="M78,7.9h-0.1l-0.4,0.1l-0.4,0.3l-0.3,0.4l-0.1,0.4V16l-0.1,0.5l-0.2,0.6l-0.3,0.6l-0.4,0.5l-0.5,0.4L74.5,19
		l-0.6,0.2l-0.5,0.1H73l-0.5-0.1L71.9,19l-0.6-0.3l-0.5-0.4l-0.4-0.5L70,17.2l-0.2-0.6L69.8,16V9.2l-0.1-0.4l-0.3-0.4l-0.4-0.3
		l-0.4-0.1h-0.3l-0.4,0.1l-0.4,0.3l-0.3,0.4L67,9.2v6.9l0.1,0.9l0.4,1.2l0.6,1.1l0.8,0.9l0.9,0.8l1.1,0.6l1.2,0.4l0.9,0.1h0.6
		l0.9-0.1l1.2-0.4l1.1-0.6l0.9-0.8l0.8-0.9l0.6-1.1l0.4-1.2l0.1-0.9V9.2l-0.1-0.4L79,8.4l-0.4-0.3l-0.4-0.1H78z"/>
	<path class="st0" d="M60.7,7.9h-0.1l-0.4,0.1l-0.4,0.3l-0.3,0.4l-0.1,0.4v11.5l0.1,0.4l0.3,0.4l0.4,0.3l0.4,0.1h0.3l0.4-0.1
		l0.4-0.3l0.3-0.4l0.1-0.4V9.2L62,8.8l-0.3-0.4l-0.4-0.3l-0.4-0.1H60.7z"/>
</g>
</svg>
