<?xml version="1.0" encoding="utf-8"?>
<!-- Generator: Adobe Illustrator 27.1.1, SVG Export Plug-In . SVG Version: 6.00 Build 0)  -->
<svg version="1.1" id="SvgjsSvg1001" xmlns="http://www.w3.org/2000/svg" xmlns:xlink="http://www.w3.org/1999/xlink" x="0px"
	 y="0px" viewBox="0 0 82.6 82.6" style="enable-background:new 0 0 82.6 82.6;" xml:space="preserve">
<style type="text/css">
	.st0{fill:#DB0000;}
</style>
<g id="Layer_2">
</g>
<g id="Layer_1" xmlns:svgjs="http://svgjs.com/svgjs">
	<g>
		<g>
			<path class="st0" d="M32.9,82.6H5.7c-3.1,0-5.6-2.5-5.6-5.6l0-71.2c0-3.1,2.5-5.6,5.6-5.6h0.7c17.7,0,32.1,14.4,32.1,32.1v44.7
				C38.6,80,36,82.6,32.9,82.6z"/>
		</g>
		<g>
			<path class="st0" d="M49.7,82.6h27.2c3.1,0,5.6-2.5,5.6-5.6V5.7c0-3.1-2.5-5.6-5.6-5.6l-0.7,0c-17.7,0-32.1,14.4-32.1,32.1v44.7
				C44.1,80,46.6,82.6,49.7,82.6z"/>
		</g>
	</g>
</g>
</svg>
