<?xml version="1.0" encoding="utf-8"?>
<!-- Generator: Adobe Illustrator 27.1.1, SVG Export Plug-In . SVG Version: 6.00 Build 0)  -->
<svg version="1.1" id="Layer_1" xmlns="http://www.w3.org/2000/svg" xmlns:xlink="http://www.w3.org/1999/xlink" x="0px" y="0px"
	 viewBox="0 0 40 40" style="enable-background:new 0 0 40 40;" xml:space="preserve">
<style type="text/css">
	.st0{fill:#8CC63F;}
</style>
<path class="st0" d="M9.6,0.1c-5.2,0-9.5,4.3-9.5,9.5v20.8c0,5.2,4.3,9.5,9.5,9.5h20.8c5.2,0,9.5-4.3,9.5-9.5V9.6
	c0-5.2-4.3-9.5-9.5-9.5H9.6z M13.4,7.7c0.6,0,1.1,0.4,1.5,0.9c0.4,0.6,1,1.5,1.7,2.7c0.7,1.1,0.7,2.5,0.1,3.6l-1.4,2
	c-0.4,0.5-0.5,1.2-0.2,1.8c0.4,0.9,1.2,2.4,2.5,3.7s2.8,2.1,3.7,2.5c0.6,0.3,1.3,0.2,1.8-0.2l2-1.4c1.1-0.6,2.5-0.6,3.6,0.1
	c1.2,0.8,2.1,1.3,2.7,1.7c0.5,0.3,0.8,0.9,0.9,1.5c0.1,3.4-2.5,4.7-3.2,4.7c-0.5,0-6.9,0.7-14-6.4S8.6,11.5,8.6,11
	C8.6,10.2,10,7.6,13.4,7.7z"/>
</svg>
