<?xml version="1.0" encoding="utf-8"?>
<!-- Generator: Adobe Illustrator 27.1.1, SVG Export Plug-In . SVG Version: 6.00 Build 0)  -->
<svg version="1.1" id="Layer_1" xmlns="http://www.w3.org/2000/svg" xmlns:xlink="http://www.w3.org/1999/xlink" x="0px" y="0px"
	 viewBox="0 0 40 40" style="enable-background:new 0 0 40 40;" xml:space="preserve">
<style type="text/css">
	.st0{fill:#2D4998;}
	.st1{fill:#F2E9E9;}
</style>
<g>
	<path class="st0" d="M39.9,9.5v21.1c0,5.2-4.2,9.4-9.4,9.4H9.5c-5.2,0-9.4-4.2-9.4-9.4V9.5c0-5.2,4.2-9.4,9.4-9.4h21.1
		C35.7,0.1,39.9,4.3,39.9,9.5z"/>
	<path class="st1" d="M22.7,17.5v3h5.8l-0.6,5.7h-5.2v13.7h-6V26.2h-5v-5.7h5v-0.4c-0.5-7.8,0.8-8.5,0.8-8.5C19.7,6.6,29,8.5,29,8.5
		v5.4c-2-0.1-3.4-0.2-4.3,0.2C22.5,15.2,22.7,17.5,22.7,17.5z"/>
</g>
</svg>
