<?xml version="1.0" encoding="utf-8"?>
<!-- Generator: Adobe Illustrator 27.1.1, SVG Export Plug-In . SVG Version: 6.00 Build 0)  -->
<svg version="1.1" id="Layer_1" xmlns="http://www.w3.org/2000/svg" xmlns:xlink="http://www.w3.org/1999/xlink" x="0px" y="0px"
	 viewBox="0 0 56 40" style="enable-background:new 0 0 56 40;" xml:space="preserve">
<style type="text/css">
	.st0{fill:#FFFFD0;}
	.st1{fill:#FFFF91;}
	.st2{fill:#FFFF8F;}
</style>
<g>
	<g>
		<path class="st0" d="M55.9,5.6v3.9c0,0.7-0.4,1.4-1,1.7l-4,2.3l0,0L28,26.4L5.1,13.5l-4-2.3c-0.6-0.3-1-1-1-1.7V5.6
			c0-3.1,2.5-5.5,5.5-5.5h44.7C53.4,0.1,55.9,2.6,55.9,5.6z"/>
	</g>
	<g>
		<path class="st1" d="M3.6,16.2L3.6,16.2c-0.4-0.2-0.8-0.3-1.2-0.3S1.6,16,1.2,16.2c-0.7,0.4-1.2,1.2-1.2,2v16.1
			c0,3.1,2.5,5.5,5.5,5.5L28,30L3.6,16.2z"/>
		<path class="st1" d="M54.8,16.2c-0.7-0.4-1.6-0.4-2.3,0L28,30l22.4,9.9c3.1,0,5.5-2.5,5.5-5.5V18.3C55.9,17.4,55.5,16.7,54.8,16.2
			z"/>
		<polygon class="st2" points="5.6,39.9 50.4,39.9 28,30 		"/>
	</g>
</g>
</svg>
