<?xml version="1.0" encoding="utf-8"?>
<!-- Generator: Adobe Illustrator 27.1.1, SVG Export Plug-In . SVG Version: 6.00 Build 0)  -->
<svg version="1.1" id="Layer_1" xmlns="http://www.w3.org/2000/svg" xmlns:xlink="http://www.w3.org/1999/xlink" x="0px" y="0px"
	 viewBox="0 0 7680 832" style="enable-background:new 0 0 7680 832;" xml:space="preserve">
<style type="text/css">
	.st0{fill:#ED1C24;}
</style>
<path class="st0" d="M4603.6,397.6h-7.9c102.2,0,190.2-78.6,195-180.7c5.1-109-81.7-199-189.7-199h-133.2
	c-31.3,0-56.7,25.4-56.7,56.7v323v375.6c0,32.3,26.1,58.4,58.4,58.4H4732c32.6,0,59-26.4,59-59V585
	C4790.9,481.5,4707,397.6,4603.6,397.6z M5135.5,509.2c-21-40.8-79.3-40.8-100.4,0l-123.9,240c-19.4,37.6,7.9,82.4,50.2,82.4h247.8
	c42.3,0,69.6-44.8,50.2-82.4L5135.5,509.2z M3508.1,1.7c-35.5-8.1-69.5,18.7-69.5,55.1v735.9c0,15.5,6.2,29.3,16,39.3h106.8
	c165.8-61,284-220.3,284-407.3C3845.5,218.3,3701.3,45.6,3508.1,1.7z M4300.3,17.9h-266.4c-31.3,0-56.7,25.4-56.7,56.7v700.4
	c0,31.3,25.4,56.7,56.7,56.7h266.4c31.3,0,56.7-25.4,56.7-56.7V74.6C4356.9,43.3,4331.6,17.9,4300.3,17.9z M7670.8,749.2l-188-364.2
	L7302.4,35.6c-21-40.8-79.3-40.8-100.4,0L7049,332c-8.4,16.3-8.4,35.6,0,51.8L7264.3,801c9.7,18.8,29.1,30.6,50.2,30.6h306.1
	C7662.9,831.6,7690.2,786.8,7670.8,749.2z M7057.9,509.2c-21-40.8-79.3-40.8-100.4,0l-123.9,240c-19.4,37.6,7.9,82.4,50.2,82.4
	h247.8c42.3,0,69.6-44.8,50.2-82.4L7057.9,509.2z M5945.3,17.9L5945.3,17.9c-31.3,0-56.7,25.4-56.7,56.7l0,700.2
	c0,31.3,25.4,56.7,56.7,56.7h266.3c31.3,0,56.7-25.4,56.7-56.7v-434C6268.3,162.5,6123.6,17.9,5945.3,17.9z M6645.5,17.9
	L6645.5,17.9c-178.4,0-323,144.6-323,323v434c0,31.3,25.4,56.7,56.7,56.7h266.3c31.3,0,56.7-25.4,56.7-56.7V74.6
	C6702.2,43.3,6676.8,17.9,6645.5,17.9z M5560.3,385L5380,35.6c-21-40.8-79.3-40.8-100.4,0l-153,296.4c-8.4,16.3-8.4,35.6,0,51.8
	L5341.9,801c9.7,18.8,29.1,30.6,50.2,30.6h306.1c42.3,0,69.6-44.8,50.2-82.4L5560.3,385z M757,17.9L757,17.9
	c-178.4,0-323,144.6-323,323v434c0,31.3,25.4,56.7,56.7,56.7H757c31.3,0,56.7-25.4,56.7-56.7V74.6C813.7,43.3,788.3,17.9,757,17.9z
	 M1305.2,1.7c-193.2,43.9-337.3,216.6-337.3,423.1c0,187,118.2,346.2,284,407.3h106.8c9.8-10.1,16-23.8,16-39.3V56.8
	C1374.8,20.3,1340.8-6.4,1305.2,1.7z M56.7,17.9L56.7,17.9C25.4,17.9,0,43.3,0,74.6v700.2c0,31.3,25.4,56.7,56.7,56.7H323
	c31.3,0,56.7-25.4,56.7-56.7v-434C379.7,162.5,235.1,17.9,56.7,17.9z M1498.5,1.7C1463-6.4,1429,20.3,1429,56.8v735.9
	c0,15.5,6.2,29.3,16,39.3h106.8c165.8-61,284-220.3,284-407.3C1835.9,218.3,1691.7,45.6,1498.5,1.7z M2815.5,17.9h-103.2
	c-31.4,0-56.9,25.5-56.9,56.9v265.9c0,31.4,25.5,56.9,56.9,56.9h103.2c31.4,0,56.9-25.5,56.9-56.9V74.8
	C2872.4,43.4,2846.9,17.9,2815.5,17.9z M3314.8,1.7c-193.2,43.9-337.3,216.6-337.3,423.1c0,187,118.2,346.2,284,407.3h106.8
	c9.8-10.1,16-23.8,16-39.3V56.8C3384.4,20.3,3350.4-6.4,3314.8,1.7z M2544.2,17.9h-265.9c-31.4,0-56.9,25.5-56.9,56.9v699.9
	c0,31.4,25.5,56.9,56.9,56.9h265.9c31.4,0,56.9-25.5,56.9-56.9V74.8C2601.1,43.4,2575.6,17.9,2544.2,17.9z M2110.2,17.9H2007
	c-31.4,0-56.9,25.5-56.9,56.9v265.9c0,31.4,25.5,56.9,56.9,56.9h103.2c31.4,0,56.9-25.5,56.9-56.9V74.8
	C2167.1,43.4,2141.7,17.9,2110.2,17.9z"/>
</svg>
