<?xml version="1.0" encoding="utf-8"?>
<!-- Generator: Adobe Illustrator 27.1.1, SVG Export Plug-In . SVG Version: 6.00 Build 0)  -->
<svg version="1.1" id="Layer_1" xmlns="http://www.w3.org/2000/svg" xmlns:xlink="http://www.w3.org/1999/xlink" x="0px" y="0px"
	 viewBox="0 0 1920 219" style="enable-background:new 0 0 1920 219;" xml:space="preserve">
<style type="text/css">
	.st0{fill:#ED1C24;}
</style>
<path class="st0" d="M325.8,0.5c-49.7,11.3-86.9,55.8-86.9,109c0,53.2,37.1,97.6,86.9,109c9.2,2.1,17.9-4.8,17.9-14.2V14.7
	C343.7,5.4,335-1.5,325.8,0.5z M375.6,0.5c-9.2-2.1-17.9,4.8-17.9,14.2v189.5c0,9.4,8.7,16.3,17.9,14.2
	c49.7-11.3,86.9-55.8,86.9-109C462.5,56.3,425.3,11.9,375.6,0.5z M830.9,0.5c-49.7,11.3-86.9,55.8-86.9,109
	c0,53.2,37.1,97.6,86.9,109c9.2,2.1,17.9-4.8,17.9-14.2V14.7C848.8,5.4,840.1-1.5,830.9,0.5z M880.7,0.5
	c-9.2-2.1-17.9,4.8-17.9,14.2v189.5c0,9.4,8.7,16.3,17.9,14.2c49.7-11.3,86.9-55.8,86.9-109C967.6,56.3,930.4,11.9,880.7,0.5z
	 M1485.7,4.7h-1.8c-7.9,0-14.3,6.4-14.3,14.3v180.9c0,7.9,6.4,14.3,14.3,14.3h69.1c7.9,0,14.3-6.4,14.3-14.3V86.3
	C1567.3,41.3,1530.8,4.7,1485.7,4.7z M1664.7,4.7h-1.8c-45.1,0-81.6,36.5-81.6,81.6v113.6c0,7.9,6.4,14.3,14.3,14.3h69.1
	c7.9,0,14.3-6.4,14.3-14.3V19.1C1679.1,11.1,1672.7,4.7,1664.7,4.7z M16.2,4.7h-1.8C6.4,4.7,0,11.1,0,19.1v180.9
	c0,7.9,6.4,14.3,14.3,14.3h69.1c7.9,0,14.3-6.4,14.3-14.3V86.3C97.8,41.3,61.3,4.7,16.2,4.7z M195.2,4.7h-1.8
	c-45.1,0-81.6,36.5-81.6,81.6v113.6c0,7.9,6.4,14.3,14.3,14.3h69.1c7.9,0,14.3-6.4,14.3-14.3V19.1C209.6,11.1,203.1,4.7,195.2,4.7z
	 M637.5,4.7H569c-8.1,0-14.7,6.6-14.7,14.7v180.2c0,8.1,6.6,14.7,14.7,14.7h68.5c8.1,0,14.7-6.6,14.7-14.7V19.4
	C652.1,11.3,645.6,4.7,637.5,4.7z M525.7,4.7h-26.6c-8.1,0-14.7,6.6-14.7,14.7v68.5c0,8.1,6.6,14.7,14.7,14.7h26.6
	c8.1,0,14.7-6.6,14.7-14.7V19.4C540.4,11.3,533.8,4.7,525.7,4.7z M707.3,4.7h-26.6c-8.1,0-14.7,6.6-14.7,14.7v68.5
	c0,8.1,6.6,14.7,14.7,14.7h26.6c8.1,0,14.7-6.6,14.7-14.7V19.4C722,11.3,715.4,4.7,707.3,4.7z M1918.3,193.1l-48.4-93.8l-46.4-90
	c-5.4-10.5-20.4-10.5-25.8,0l-39.4,76.3c-2.2,4.2-2.2,9.2,0,13.3l55.5,107.4c2.5,4.8,7.5,7.9,12.9,7.9h78.8
	C1916.3,214.3,1923.3,202.7,1918.3,193.1z M1760.5,131.3c-5.4-10.5-20.4-10.5-25.9,0l-31.9,61.8c-5,9.7,2,21.2,12.9,21.2h63.8
	c10.9,0,17.9-11.5,12.9-21.2L1760.5,131.3z M1397.4,99.3l-46.4-90c-5.4-10.5-20.4-10.5-25.9,0l-39.4,76.3c-2.2,4.2-2.2,9.2,0,13.3
	l55.5,107.4c2.5,4.8,7.5,7.9,12.9,7.9h78.8c10.9,0,17.9-11.5,12.9-21.2L1397.4,99.3z M1288,131.3c-5.4-10.5-20.4-10.5-25.8,0
	l-31.9,61.8c-5,9.7,2,21.2,12.9,21.2h63.8c10.9,0,17.9-11.5,12.9-21.2L1288,131.3z M1080.1,4.7h-68.6c-8.1,0-14.6,6.5-14.6,14.6
	v180.4c0,8.1,6.5,14.6,14.6,14.6h68.6c8.1,0,14.6-6.5,14.6-14.6V19.3C1094.7,11.3,1088.2,4.7,1080.1,4.7z M1158.2,102.5h-2
	c26.3,0,49-20.2,50.2-46.5c1.3-28.1-21.1-51.3-48.8-51.3h-34.3c-8.1,0-14.6,6.5-14.6,14.6v83.2v96.7c0,8.3,6.7,15,15,15h67.6
	c8.4,0,15.2-6.8,15.2-15.2v-48.3C1206.5,124.1,1184.9,102.5,1158.2,102.5z"/>
</svg>
