<?xml version="1.0" encoding="utf-8"?>
<!-- Generator: Adobe Illustrator 27.1.1, SVG Export Plug-In . SVG Version: 6.00 Build 0)  -->
<svg version="1.1" id="Layer_1" xmlns="http://www.w3.org/2000/svg" xmlns:xlink="http://www.w3.org/1999/xlink" x="0px" y="0px"
	 viewBox="0 0 7680 573.9" style="enable-background:new 0 0 7680 573.9;" xml:space="preserve">
<style type="text/css">
	.st0{fill:#9C9C9C;}
	.st1{fill:#E75D25;}
</style>
<g>
	<g>
		<g>
			<polygon class="st0" points="4162.8,300.4 3990.4,300.4 4067.9,230.5 4237.8,230.5 			"/>
			<path class="st0" d="M1556,75.5L1088.4,508H779.5l372.7-330.8h-3.1L634,507.7H459.3l198.3-330.3h-2L314.1,507.7H5.2L471.4,75.2
				h378L709.6,349.3h-20.8l434.5-273.9H1556z"/>
			<path class="st0" d="M3266.4,69.9l-114.9,107.5h-233.4L2560.9,508h-292.1l357-330.3h-223l115.5-107.6L3266.4,69.9L3266.4,69.9z"
				/>
			<g>
				<g>
					<path class="st0" d="M4019.6,56.1L3470.8,60c-64.6,0.6-162.9,42.1-218.8,92.7l-306.1,277.5c-55.9,50.5-48.6,91.6,16,91
						l548.7-3.9c64.6-0.6,162.9-42.1,218.8-92.7l306.1-277.5C4091.2,96.5,4084.1,55.5,4019.6,56.1z M3521.6,396.5h-294.3
						l232.3-215.4h294.3L3521.6,396.5z"/>
				</g>
			</g>
			<g>
				<g>
					<path class="st0" d="M2351.4,56.1L1802.8,60c-64.6,0.6-162.9,42.1-218.4,92.7l-305.6,277.5c-55.6,50.5-48.3,91.6,16.3,91
						l548.8-3.9c64.6-0.6,162.9-42.1,218.5-92.7l305.5-277.5C2423.3,96.5,2415.9,55.5,2351.4,56.1z M1854.5,396.5h-294.3
						l231.7-215.4h294.4L1854.5,396.5z"/>
				</g>
			</g>
			<polygon class="st0" points="7587.7,145.1 7674.8,64.5 6881.7,64.5 6519.4,288.9 6741.6,522.6 7181.1,522.6 7265.9,443.7 
				6825.8,443.7 6949.1,329.1 7389.7,329.1 7476.5,248.5 7037.3,248.5 7149,145.1 			"/>
			<g>
				<path class="st1" d="M5303,60.6l210.7,223.8L5136,518.6h271.3l171.9-99.4l102.8,99.4h265.4L5724,284.4l351.1-223.8h-257
					L5656,162.5l-93.2-101.9H5303z"/>
				<path class="st1" d="M5951.2,60.6l210.6,223.8l-377.7,234.2h271.3l171.9-99.4l102.8,99.4h265.4l-223.3-234.2l351-223.8h-257
					l-162.1,101.9L6211,60.6C6211,60.3,5951.2,60.3,5951.2,60.6z"/>
				<g>
					<polygon class="st0" points="5797.9,8.6 5674.9,113.7 5598.2,8.6 5183.1,8.6 5274.1,81.1 5274.4,74.4 5234.5,27.2 5589.8,27.2 
						5672.1,119 5803.8,27.2 5860.8,27.2 6085.2,8.6 					"/>
					<polygon class="st0" points="6440.2,8.6 6309.6,81.4 6241.6,28 6239.4,27.2 6305.1,105.2 6444.9,27.2 6797.7,27.2 6740.1,71 
						6736.8,74.4 6871.3,8.6 					"/>
				</g>
				<g>
					<polygon class="st0" points="5642.9,545.9 5576,467.5 5434.5,545.9 5062.1,545.9 5120.2,501.8 5123.6,498.4 4987.4,564.7 
						5439.3,564.7 5571.8,485.2 5646.2,549.3 5643.1,545.9 					"/>
					<polygon class="st0" points="6606.1,492.2 6605.9,492.2 6651.4,545.9 6301.2,545.9 6217.7,453.8 6071.4,545.9 5864.4,565.3 
						5866.4,564.7 6077.3,564.7 6214.9,478.8 6292.8,564.7 6702.5,564.7 					"/>
				</g>
			</g>
			<path class="st0" d="M4832.6,522.6h137.9L5355,286.1L5153.4,64.5H4565l-493.7,458.1h376L4561,416.7l277.5-2.2L4832.6,522.6z
				 M4843.9,339.2H4633l226.6-211.8L4843.9,339.2z"/>
		</g>
	</g>
</g>
</svg>
